G75*
%MOIN*%
%OFA0B0*%
%FSLAX25Y25*%
%IPPOS*%
%LPD*%
%AMOC8*
5,1,8,0,0,1.08239X$1,22.5*
%
%ADD10C,0.00000*%
D10*
X0001800Y0001800D02*
X0001800Y0198650D01*
X0198650Y0198650D01*
X0198650Y0001800D01*
X0001800Y0001800D01*
X0054083Y0010737D02*
X0054085Y0010825D01*
X0054091Y0010913D01*
X0054101Y0011001D01*
X0054115Y0011089D01*
X0054132Y0011175D01*
X0054154Y0011261D01*
X0054179Y0011345D01*
X0054209Y0011429D01*
X0054241Y0011511D01*
X0054278Y0011591D01*
X0054318Y0011670D01*
X0054362Y0011747D01*
X0054409Y0011822D01*
X0054459Y0011894D01*
X0054513Y0011965D01*
X0054569Y0012032D01*
X0054629Y0012098D01*
X0054691Y0012160D01*
X0054757Y0012220D01*
X0054824Y0012276D01*
X0054895Y0012330D01*
X0054967Y0012380D01*
X0055042Y0012427D01*
X0055119Y0012471D01*
X0055198Y0012511D01*
X0055278Y0012548D01*
X0055360Y0012580D01*
X0055444Y0012610D01*
X0055528Y0012635D01*
X0055614Y0012657D01*
X0055700Y0012674D01*
X0055788Y0012688D01*
X0055876Y0012698D01*
X0055964Y0012704D01*
X0056052Y0012706D01*
X0056140Y0012704D01*
X0056228Y0012698D01*
X0056316Y0012688D01*
X0056404Y0012674D01*
X0056490Y0012657D01*
X0056576Y0012635D01*
X0056660Y0012610D01*
X0056744Y0012580D01*
X0056826Y0012548D01*
X0056906Y0012511D01*
X0056985Y0012471D01*
X0057062Y0012427D01*
X0057137Y0012380D01*
X0057209Y0012330D01*
X0057280Y0012276D01*
X0057347Y0012220D01*
X0057413Y0012160D01*
X0057475Y0012098D01*
X0057535Y0012032D01*
X0057591Y0011965D01*
X0057645Y0011894D01*
X0057695Y0011822D01*
X0057742Y0011747D01*
X0057786Y0011670D01*
X0057826Y0011591D01*
X0057863Y0011511D01*
X0057895Y0011429D01*
X0057925Y0011345D01*
X0057950Y0011261D01*
X0057972Y0011175D01*
X0057989Y0011089D01*
X0058003Y0011001D01*
X0058013Y0010913D01*
X0058019Y0010825D01*
X0058021Y0010737D01*
X0058019Y0010649D01*
X0058013Y0010561D01*
X0058003Y0010473D01*
X0057989Y0010385D01*
X0057972Y0010299D01*
X0057950Y0010213D01*
X0057925Y0010129D01*
X0057895Y0010045D01*
X0057863Y0009963D01*
X0057826Y0009883D01*
X0057786Y0009804D01*
X0057742Y0009727D01*
X0057695Y0009652D01*
X0057645Y0009580D01*
X0057591Y0009509D01*
X0057535Y0009442D01*
X0057475Y0009376D01*
X0057413Y0009314D01*
X0057347Y0009254D01*
X0057280Y0009198D01*
X0057209Y0009144D01*
X0057137Y0009094D01*
X0057062Y0009047D01*
X0056985Y0009003D01*
X0056906Y0008963D01*
X0056826Y0008926D01*
X0056744Y0008894D01*
X0056660Y0008864D01*
X0056576Y0008839D01*
X0056490Y0008817D01*
X0056404Y0008800D01*
X0056316Y0008786D01*
X0056228Y0008776D01*
X0056140Y0008770D01*
X0056052Y0008768D01*
X0055964Y0008770D01*
X0055876Y0008776D01*
X0055788Y0008786D01*
X0055700Y0008800D01*
X0055614Y0008817D01*
X0055528Y0008839D01*
X0055444Y0008864D01*
X0055360Y0008894D01*
X0055278Y0008926D01*
X0055198Y0008963D01*
X0055119Y0009003D01*
X0055042Y0009047D01*
X0054967Y0009094D01*
X0054895Y0009144D01*
X0054824Y0009198D01*
X0054757Y0009254D01*
X0054691Y0009314D01*
X0054629Y0009376D01*
X0054569Y0009442D01*
X0054513Y0009509D01*
X0054459Y0009580D01*
X0054409Y0009652D01*
X0054362Y0009727D01*
X0054318Y0009804D01*
X0054278Y0009883D01*
X0054241Y0009963D01*
X0054209Y0010045D01*
X0054179Y0010129D01*
X0054154Y0010213D01*
X0054132Y0010299D01*
X0054115Y0010385D01*
X0054101Y0010473D01*
X0054091Y0010561D01*
X0054085Y0010649D01*
X0054083Y0010737D01*
X0085579Y0010737D02*
X0085581Y0010825D01*
X0085587Y0010913D01*
X0085597Y0011001D01*
X0085611Y0011089D01*
X0085628Y0011175D01*
X0085650Y0011261D01*
X0085675Y0011345D01*
X0085705Y0011429D01*
X0085737Y0011511D01*
X0085774Y0011591D01*
X0085814Y0011670D01*
X0085858Y0011747D01*
X0085905Y0011822D01*
X0085955Y0011894D01*
X0086009Y0011965D01*
X0086065Y0012032D01*
X0086125Y0012098D01*
X0086187Y0012160D01*
X0086253Y0012220D01*
X0086320Y0012276D01*
X0086391Y0012330D01*
X0086463Y0012380D01*
X0086538Y0012427D01*
X0086615Y0012471D01*
X0086694Y0012511D01*
X0086774Y0012548D01*
X0086856Y0012580D01*
X0086940Y0012610D01*
X0087024Y0012635D01*
X0087110Y0012657D01*
X0087196Y0012674D01*
X0087284Y0012688D01*
X0087372Y0012698D01*
X0087460Y0012704D01*
X0087548Y0012706D01*
X0087636Y0012704D01*
X0087724Y0012698D01*
X0087812Y0012688D01*
X0087900Y0012674D01*
X0087986Y0012657D01*
X0088072Y0012635D01*
X0088156Y0012610D01*
X0088240Y0012580D01*
X0088322Y0012548D01*
X0088402Y0012511D01*
X0088481Y0012471D01*
X0088558Y0012427D01*
X0088633Y0012380D01*
X0088705Y0012330D01*
X0088776Y0012276D01*
X0088843Y0012220D01*
X0088909Y0012160D01*
X0088971Y0012098D01*
X0089031Y0012032D01*
X0089087Y0011965D01*
X0089141Y0011894D01*
X0089191Y0011822D01*
X0089238Y0011747D01*
X0089282Y0011670D01*
X0089322Y0011591D01*
X0089359Y0011511D01*
X0089391Y0011429D01*
X0089421Y0011345D01*
X0089446Y0011261D01*
X0089468Y0011175D01*
X0089485Y0011089D01*
X0089499Y0011001D01*
X0089509Y0010913D01*
X0089515Y0010825D01*
X0089517Y0010737D01*
X0089515Y0010649D01*
X0089509Y0010561D01*
X0089499Y0010473D01*
X0089485Y0010385D01*
X0089468Y0010299D01*
X0089446Y0010213D01*
X0089421Y0010129D01*
X0089391Y0010045D01*
X0089359Y0009963D01*
X0089322Y0009883D01*
X0089282Y0009804D01*
X0089238Y0009727D01*
X0089191Y0009652D01*
X0089141Y0009580D01*
X0089087Y0009509D01*
X0089031Y0009442D01*
X0088971Y0009376D01*
X0088909Y0009314D01*
X0088843Y0009254D01*
X0088776Y0009198D01*
X0088705Y0009144D01*
X0088633Y0009094D01*
X0088558Y0009047D01*
X0088481Y0009003D01*
X0088402Y0008963D01*
X0088322Y0008926D01*
X0088240Y0008894D01*
X0088156Y0008864D01*
X0088072Y0008839D01*
X0087986Y0008817D01*
X0087900Y0008800D01*
X0087812Y0008786D01*
X0087724Y0008776D01*
X0087636Y0008770D01*
X0087548Y0008768D01*
X0087460Y0008770D01*
X0087372Y0008776D01*
X0087284Y0008786D01*
X0087196Y0008800D01*
X0087110Y0008817D01*
X0087024Y0008839D01*
X0086940Y0008864D01*
X0086856Y0008894D01*
X0086774Y0008926D01*
X0086694Y0008963D01*
X0086615Y0009003D01*
X0086538Y0009047D01*
X0086463Y0009094D01*
X0086391Y0009144D01*
X0086320Y0009198D01*
X0086253Y0009254D01*
X0086187Y0009314D01*
X0086125Y0009376D01*
X0086065Y0009442D01*
X0086009Y0009509D01*
X0085955Y0009580D01*
X0085905Y0009652D01*
X0085858Y0009727D01*
X0085814Y0009804D01*
X0085774Y0009883D01*
X0085737Y0009963D01*
X0085705Y0010045D01*
X0085675Y0010129D01*
X0085650Y0010213D01*
X0085628Y0010299D01*
X0085611Y0010385D01*
X0085597Y0010473D01*
X0085587Y0010561D01*
X0085581Y0010649D01*
X0085579Y0010737D01*
M02*
