G75*
%MOIN*%
%OFA0B0*%
%FSLAX25Y25*%
%IPPOS*%
%LPD*%
%AMOC8*
5,1,8,0,0,1.08239X$1,22.5*
%
%ADD10C,0.00000*%
%ADD11C,0.07400*%
%ADD12OC8,0.05200*%
%ADD13C,0.05200*%
%ADD14C,0.05150*%
%ADD15C,0.11220*%
%ADD16C,0.01600*%
%ADD17R,0.03562X0.03562*%
D10*
X0001800Y0001800D02*
X0001800Y0198650D01*
X0198650Y0198650D01*
X0198650Y0001800D01*
X0001800Y0001800D01*
X0054083Y0010737D02*
X0054085Y0010825D01*
X0054091Y0010913D01*
X0054101Y0011001D01*
X0054115Y0011089D01*
X0054132Y0011175D01*
X0054154Y0011261D01*
X0054179Y0011345D01*
X0054209Y0011429D01*
X0054241Y0011511D01*
X0054278Y0011591D01*
X0054318Y0011670D01*
X0054362Y0011747D01*
X0054409Y0011822D01*
X0054459Y0011894D01*
X0054513Y0011965D01*
X0054569Y0012032D01*
X0054629Y0012098D01*
X0054691Y0012160D01*
X0054757Y0012220D01*
X0054824Y0012276D01*
X0054895Y0012330D01*
X0054967Y0012380D01*
X0055042Y0012427D01*
X0055119Y0012471D01*
X0055198Y0012511D01*
X0055278Y0012548D01*
X0055360Y0012580D01*
X0055444Y0012610D01*
X0055528Y0012635D01*
X0055614Y0012657D01*
X0055700Y0012674D01*
X0055788Y0012688D01*
X0055876Y0012698D01*
X0055964Y0012704D01*
X0056052Y0012706D01*
X0056140Y0012704D01*
X0056228Y0012698D01*
X0056316Y0012688D01*
X0056404Y0012674D01*
X0056490Y0012657D01*
X0056576Y0012635D01*
X0056660Y0012610D01*
X0056744Y0012580D01*
X0056826Y0012548D01*
X0056906Y0012511D01*
X0056985Y0012471D01*
X0057062Y0012427D01*
X0057137Y0012380D01*
X0057209Y0012330D01*
X0057280Y0012276D01*
X0057347Y0012220D01*
X0057413Y0012160D01*
X0057475Y0012098D01*
X0057535Y0012032D01*
X0057591Y0011965D01*
X0057645Y0011894D01*
X0057695Y0011822D01*
X0057742Y0011747D01*
X0057786Y0011670D01*
X0057826Y0011591D01*
X0057863Y0011511D01*
X0057895Y0011429D01*
X0057925Y0011345D01*
X0057950Y0011261D01*
X0057972Y0011175D01*
X0057989Y0011089D01*
X0058003Y0011001D01*
X0058013Y0010913D01*
X0058019Y0010825D01*
X0058021Y0010737D01*
X0058019Y0010649D01*
X0058013Y0010561D01*
X0058003Y0010473D01*
X0057989Y0010385D01*
X0057972Y0010299D01*
X0057950Y0010213D01*
X0057925Y0010129D01*
X0057895Y0010045D01*
X0057863Y0009963D01*
X0057826Y0009883D01*
X0057786Y0009804D01*
X0057742Y0009727D01*
X0057695Y0009652D01*
X0057645Y0009580D01*
X0057591Y0009509D01*
X0057535Y0009442D01*
X0057475Y0009376D01*
X0057413Y0009314D01*
X0057347Y0009254D01*
X0057280Y0009198D01*
X0057209Y0009144D01*
X0057137Y0009094D01*
X0057062Y0009047D01*
X0056985Y0009003D01*
X0056906Y0008963D01*
X0056826Y0008926D01*
X0056744Y0008894D01*
X0056660Y0008864D01*
X0056576Y0008839D01*
X0056490Y0008817D01*
X0056404Y0008800D01*
X0056316Y0008786D01*
X0056228Y0008776D01*
X0056140Y0008770D01*
X0056052Y0008768D01*
X0055964Y0008770D01*
X0055876Y0008776D01*
X0055788Y0008786D01*
X0055700Y0008800D01*
X0055614Y0008817D01*
X0055528Y0008839D01*
X0055444Y0008864D01*
X0055360Y0008894D01*
X0055278Y0008926D01*
X0055198Y0008963D01*
X0055119Y0009003D01*
X0055042Y0009047D01*
X0054967Y0009094D01*
X0054895Y0009144D01*
X0054824Y0009198D01*
X0054757Y0009254D01*
X0054691Y0009314D01*
X0054629Y0009376D01*
X0054569Y0009442D01*
X0054513Y0009509D01*
X0054459Y0009580D01*
X0054409Y0009652D01*
X0054362Y0009727D01*
X0054318Y0009804D01*
X0054278Y0009883D01*
X0054241Y0009963D01*
X0054209Y0010045D01*
X0054179Y0010129D01*
X0054154Y0010213D01*
X0054132Y0010299D01*
X0054115Y0010385D01*
X0054101Y0010473D01*
X0054091Y0010561D01*
X0054085Y0010649D01*
X0054083Y0010737D01*
X0085579Y0010737D02*
X0085581Y0010825D01*
X0085587Y0010913D01*
X0085597Y0011001D01*
X0085611Y0011089D01*
X0085628Y0011175D01*
X0085650Y0011261D01*
X0085675Y0011345D01*
X0085705Y0011429D01*
X0085737Y0011511D01*
X0085774Y0011591D01*
X0085814Y0011670D01*
X0085858Y0011747D01*
X0085905Y0011822D01*
X0085955Y0011894D01*
X0086009Y0011965D01*
X0086065Y0012032D01*
X0086125Y0012098D01*
X0086187Y0012160D01*
X0086253Y0012220D01*
X0086320Y0012276D01*
X0086391Y0012330D01*
X0086463Y0012380D01*
X0086538Y0012427D01*
X0086615Y0012471D01*
X0086694Y0012511D01*
X0086774Y0012548D01*
X0086856Y0012580D01*
X0086940Y0012610D01*
X0087024Y0012635D01*
X0087110Y0012657D01*
X0087196Y0012674D01*
X0087284Y0012688D01*
X0087372Y0012698D01*
X0087460Y0012704D01*
X0087548Y0012706D01*
X0087636Y0012704D01*
X0087724Y0012698D01*
X0087812Y0012688D01*
X0087900Y0012674D01*
X0087986Y0012657D01*
X0088072Y0012635D01*
X0088156Y0012610D01*
X0088240Y0012580D01*
X0088322Y0012548D01*
X0088402Y0012511D01*
X0088481Y0012471D01*
X0088558Y0012427D01*
X0088633Y0012380D01*
X0088705Y0012330D01*
X0088776Y0012276D01*
X0088843Y0012220D01*
X0088909Y0012160D01*
X0088971Y0012098D01*
X0089031Y0012032D01*
X0089087Y0011965D01*
X0089141Y0011894D01*
X0089191Y0011822D01*
X0089238Y0011747D01*
X0089282Y0011670D01*
X0089322Y0011591D01*
X0089359Y0011511D01*
X0089391Y0011429D01*
X0089421Y0011345D01*
X0089446Y0011261D01*
X0089468Y0011175D01*
X0089485Y0011089D01*
X0089499Y0011001D01*
X0089509Y0010913D01*
X0089515Y0010825D01*
X0089517Y0010737D01*
X0089515Y0010649D01*
X0089509Y0010561D01*
X0089499Y0010473D01*
X0089485Y0010385D01*
X0089468Y0010299D01*
X0089446Y0010213D01*
X0089421Y0010129D01*
X0089391Y0010045D01*
X0089359Y0009963D01*
X0089322Y0009883D01*
X0089282Y0009804D01*
X0089238Y0009727D01*
X0089191Y0009652D01*
X0089141Y0009580D01*
X0089087Y0009509D01*
X0089031Y0009442D01*
X0088971Y0009376D01*
X0088909Y0009314D01*
X0088843Y0009254D01*
X0088776Y0009198D01*
X0088705Y0009144D01*
X0088633Y0009094D01*
X0088558Y0009047D01*
X0088481Y0009003D01*
X0088402Y0008963D01*
X0088322Y0008926D01*
X0088240Y0008894D01*
X0088156Y0008864D01*
X0088072Y0008839D01*
X0087986Y0008817D01*
X0087900Y0008800D01*
X0087812Y0008786D01*
X0087724Y0008776D01*
X0087636Y0008770D01*
X0087548Y0008768D01*
X0087460Y0008770D01*
X0087372Y0008776D01*
X0087284Y0008786D01*
X0087196Y0008800D01*
X0087110Y0008817D01*
X0087024Y0008839D01*
X0086940Y0008864D01*
X0086856Y0008894D01*
X0086774Y0008926D01*
X0086694Y0008963D01*
X0086615Y0009003D01*
X0086538Y0009047D01*
X0086463Y0009094D01*
X0086391Y0009144D01*
X0086320Y0009198D01*
X0086253Y0009254D01*
X0086187Y0009314D01*
X0086125Y0009376D01*
X0086065Y0009442D01*
X0086009Y0009509D01*
X0085955Y0009580D01*
X0085905Y0009652D01*
X0085858Y0009727D01*
X0085814Y0009804D01*
X0085774Y0009883D01*
X0085737Y0009963D01*
X0085705Y0010045D01*
X0085675Y0010129D01*
X0085650Y0010213D01*
X0085628Y0010299D01*
X0085611Y0010385D01*
X0085597Y0010473D01*
X0085587Y0010561D01*
X0085581Y0010649D01*
X0085579Y0010737D01*
D11*
X0066800Y0046800D03*
X0066800Y0056800D03*
X0066800Y0066800D03*
X0081800Y0081800D03*
X0081800Y0091800D03*
X0081800Y0101800D03*
X0076800Y0126800D03*
X0076800Y0136800D03*
X0076800Y0146800D03*
X0076800Y0156800D03*
X0076800Y0166800D03*
X0076800Y0191800D03*
X0066800Y0191800D03*
X0056800Y0191800D03*
X0006800Y0136800D03*
X0006800Y0126800D03*
X0006800Y0116800D03*
X0006800Y0106800D03*
X0006800Y0096800D03*
X0006800Y0086800D03*
X0006800Y0076800D03*
X0006800Y0066800D03*
X0194300Y0066800D03*
X0194300Y0076800D03*
X0194300Y0086800D03*
X0194300Y0096800D03*
X0194300Y0106800D03*
X0194300Y0116800D03*
X0194300Y0126800D03*
X0194300Y0136800D03*
D12*
X0186800Y0156800D03*
X0176800Y0156800D03*
X0161800Y0161800D03*
X0151800Y0161800D03*
X0151800Y0176800D03*
X0151800Y0186800D03*
X0176800Y0186800D03*
X0176800Y0176800D03*
X0151800Y0116800D03*
X0151800Y0106800D03*
X0081800Y0041800D03*
X0081800Y0031800D03*
X0111800Y0021800D03*
X0121800Y0021800D03*
X0066800Y0096800D03*
X0041800Y0066800D03*
X0041800Y0056800D03*
X0031800Y0026800D03*
X0024300Y0021800D03*
X0031800Y0016800D03*
X0026800Y0096800D03*
X0026800Y0136800D03*
X0006800Y0156800D03*
X0006800Y0171800D03*
X0021800Y0186800D03*
X0031800Y0186800D03*
X0046800Y0171800D03*
X0046800Y0156800D03*
X0066800Y0136800D03*
D13*
X0099200Y0136800D02*
X0104400Y0136800D01*
X0104400Y0126800D02*
X0099200Y0126800D01*
X0099200Y0116800D02*
X0104400Y0116800D01*
X0104400Y0106800D02*
X0099200Y0106800D01*
X0099200Y0096800D02*
X0104400Y0096800D01*
X0104400Y0086800D02*
X0099200Y0086800D01*
X0099200Y0076800D02*
X0104400Y0076800D01*
X0104400Y0066800D02*
X0099200Y0066800D01*
X0099200Y0056800D02*
X0104400Y0056800D01*
X0104400Y0046800D02*
X0099200Y0046800D01*
X0129200Y0046800D02*
X0134400Y0046800D01*
X0134400Y0056800D02*
X0129200Y0056800D01*
X0129200Y0066800D02*
X0134400Y0066800D01*
X0134400Y0076800D02*
X0129200Y0076800D01*
X0129200Y0086800D02*
X0134400Y0086800D01*
X0134400Y0096800D02*
X0129200Y0096800D01*
X0129200Y0106800D02*
X0134400Y0106800D01*
X0134400Y0116800D02*
X0129200Y0116800D01*
X0129200Y0126800D02*
X0134400Y0126800D01*
X0134400Y0136800D02*
X0129200Y0136800D01*
X0129200Y0146800D02*
X0134400Y0146800D01*
X0134400Y0156800D02*
X0129200Y0156800D01*
X0129200Y0166800D02*
X0134400Y0166800D01*
X0134400Y0176800D02*
X0129200Y0176800D01*
X0104400Y0176800D02*
X0099200Y0176800D01*
X0099200Y0166800D02*
X0104400Y0166800D01*
X0104400Y0156800D02*
X0099200Y0156800D01*
X0099200Y0146800D02*
X0104400Y0146800D01*
D14*
X0156721Y0038099D03*
X0161446Y0034950D03*
X0156721Y0031800D03*
X0161446Y0028650D03*
X0156721Y0025501D03*
X0079674Y0010737D03*
X0071800Y0010737D03*
X0063926Y0010737D03*
D15*
X0176800Y0017430D03*
X0176800Y0046170D03*
D16*
X0169726Y0043361D02*
X0149600Y0043361D01*
X0149600Y0041763D02*
X0154321Y0041763D01*
X0154428Y0041841D02*
X0153871Y0041436D01*
X0153384Y0040949D01*
X0152980Y0040392D01*
X0152667Y0039779D01*
X0152454Y0039124D01*
X0152346Y0038444D01*
X0152346Y0038099D01*
X0152346Y0037755D01*
X0152454Y0037075D01*
X0152667Y0036420D01*
X0152980Y0035806D01*
X0153384Y0035249D01*
X0153543Y0035091D01*
X0153052Y0034600D01*
X0152960Y0034600D01*
X0149600Y0037960D01*
X0149600Y0048209D01*
X0150581Y0049190D01*
X0150581Y0054410D01*
X0149410Y0055581D01*
X0144190Y0055581D01*
X0143019Y0054410D01*
X0143019Y0049190D01*
X0144000Y0048209D01*
X0144000Y0036243D01*
X0144426Y0035214D01*
X0145214Y0034426D01*
X0150214Y0029426D01*
X0151243Y0029000D01*
X0153052Y0029000D01*
X0153401Y0028650D01*
X0153052Y0028301D01*
X0134600Y0028301D01*
X0134600Y0042200D01*
X0135315Y0042200D01*
X0137006Y0042900D01*
X0138300Y0044194D01*
X0139000Y0045885D01*
X0139000Y0047715D01*
X0138300Y0049406D01*
X0137006Y0050700D01*
X0135315Y0051400D01*
X0128285Y0051400D01*
X0126594Y0050700D01*
X0125300Y0049406D01*
X0124600Y0047715D01*
X0124600Y0045885D01*
X0125281Y0044241D01*
X0119426Y0038386D01*
X0119000Y0037357D01*
X0119000Y0025505D01*
X0117200Y0023705D01*
X0117200Y0019895D01*
X0119000Y0018095D01*
X0119000Y0017960D01*
X0115640Y0014600D01*
X0099600Y0014600D01*
X0099600Y0017357D01*
X0099174Y0018386D01*
X0094174Y0023386D01*
X0093386Y0024174D01*
X0092357Y0024600D01*
X0086243Y0024600D01*
X0085214Y0024174D01*
X0079426Y0018386D01*
X0079335Y0018165D01*
X0078745Y0017782D01*
X0078114Y0016864D01*
X0077689Y0014867D01*
X0077083Y0014615D01*
X0076004Y0013537D01*
X0075470Y0013537D01*
X0074391Y0014615D01*
X0072827Y0015263D01*
X0069370Y0022913D01*
X0069174Y0023386D01*
X0069141Y0023419D01*
X0069122Y0023461D01*
X0068748Y0023811D01*
X0068386Y0024174D01*
X0068343Y0024191D01*
X0068310Y0024223D01*
X0067830Y0024404D01*
X0067357Y0024600D01*
X0067311Y0024600D01*
X0067268Y0024616D01*
X0066755Y0024600D01*
X0036105Y0024600D01*
X0036400Y0024895D01*
X0036400Y0025257D01*
X0079045Y0038050D01*
X0079895Y0037200D01*
X0083705Y0037200D01*
X0086400Y0039895D01*
X0086400Y0041750D01*
X0094711Y0047983D01*
X0094600Y0047715D01*
X0094600Y0045885D01*
X0095300Y0044194D01*
X0096594Y0042900D01*
X0098285Y0042200D01*
X0105315Y0042200D01*
X0107006Y0042900D01*
X0108300Y0044194D01*
X0109000Y0045885D01*
X0109000Y0047715D01*
X0108300Y0049406D01*
X0107006Y0050700D01*
X0105315Y0051400D01*
X0099267Y0051400D01*
X0100333Y0052200D01*
X0105315Y0052200D01*
X0107006Y0052900D01*
X0108300Y0054194D01*
X0109000Y0055885D01*
X0109000Y0057715D01*
X0108300Y0059406D01*
X0107006Y0060700D01*
X0105315Y0061400D01*
X0098285Y0061400D01*
X0096594Y0060700D01*
X0095300Y0059406D01*
X0094600Y0057715D01*
X0094600Y0055885D01*
X0094911Y0055133D01*
X0083267Y0046400D01*
X0079895Y0046400D01*
X0077200Y0043705D01*
X0077200Y0043343D01*
X0034555Y0030550D01*
X0033705Y0031400D01*
X0029895Y0031400D01*
X0027200Y0028705D01*
X0027200Y0025405D01*
X0026205Y0026400D01*
X0022395Y0026400D01*
X0019700Y0023705D01*
X0019700Y0019895D01*
X0022395Y0017200D01*
X0026205Y0017200D01*
X0027400Y0018395D01*
X0027400Y0016800D01*
X0031800Y0016800D01*
X0036200Y0016800D01*
X0036200Y0018623D01*
X0035823Y0019000D01*
X0064993Y0019000D01*
X0067747Y0012906D01*
X0067740Y0012889D01*
X0067668Y0013030D01*
X0067263Y0013587D01*
X0066776Y0014074D01*
X0066219Y0014479D01*
X0065605Y0014791D01*
X0064950Y0015004D01*
X0064270Y0015112D01*
X0063926Y0015112D01*
X0063926Y0010737D01*
X0063926Y0006362D01*
X0064270Y0006362D01*
X0064950Y0006470D01*
X0065605Y0006683D01*
X0066219Y0006995D01*
X0066776Y0007400D01*
X0067263Y0007887D01*
X0067668Y0008444D01*
X0067740Y0008585D01*
X0067922Y0008146D01*
X0069209Y0006859D01*
X0070890Y0006162D01*
X0072710Y0006162D01*
X0074391Y0006859D01*
X0075470Y0007937D01*
X0076004Y0007937D01*
X0077083Y0006859D01*
X0078764Y0006162D01*
X0080584Y0006162D01*
X0082265Y0006859D01*
X0083552Y0008146D01*
X0083939Y0009079D01*
X0084184Y0008489D01*
X0085300Y0007373D01*
X0086759Y0006769D01*
X0088337Y0006769D01*
X0089796Y0007373D01*
X0090912Y0008489D01*
X0091517Y0009948D01*
X0091517Y0011526D01*
X0090912Y0012985D01*
X0089796Y0014101D01*
X0088337Y0014705D01*
X0086759Y0014705D01*
X0085300Y0014101D01*
X0084600Y0013401D01*
X0084600Y0015640D01*
X0087960Y0019000D01*
X0090640Y0019000D01*
X0094000Y0015640D01*
X0094000Y0011243D01*
X0094426Y0010214D01*
X0095214Y0009426D01*
X0096243Y0009000D01*
X0117357Y0009000D01*
X0118386Y0009426D01*
X0119174Y0010214D01*
X0124174Y0015214D01*
X0124600Y0016243D01*
X0124600Y0018095D01*
X0126400Y0019895D01*
X0126400Y0023705D01*
X0124600Y0025505D01*
X0124600Y0035640D01*
X0129000Y0040040D01*
X0129000Y0026243D01*
X0129426Y0025214D01*
X0130214Y0024426D01*
X0131513Y0023127D01*
X0132542Y0022701D01*
X0153052Y0022701D01*
X0154130Y0021622D01*
X0155811Y0020926D01*
X0156966Y0020926D01*
X0151621Y0015581D01*
X0149190Y0015581D01*
X0148019Y0014410D01*
X0148019Y0009190D01*
X0149190Y0008019D01*
X0154410Y0008019D01*
X0155581Y0009190D01*
X0155581Y0011621D01*
X0163819Y0019860D01*
X0164246Y0020889D01*
X0164246Y0024981D01*
X0165324Y0026059D01*
X0166020Y0027740D01*
X0166020Y0029560D01*
X0165324Y0031242D01*
X0164766Y0031800D01*
X0165324Y0032358D01*
X0166020Y0034040D01*
X0166020Y0035860D01*
X0165324Y0037541D01*
X0164037Y0038828D01*
X0162356Y0039524D01*
X0160858Y0039524D01*
X0160776Y0039779D01*
X0160463Y0040392D01*
X0160058Y0040949D01*
X0159571Y0041436D01*
X0159014Y0041841D01*
X0158401Y0042153D01*
X0157746Y0042366D01*
X0157066Y0042474D01*
X0156721Y0042474D01*
X0156377Y0042474D01*
X0155697Y0042366D01*
X0155042Y0042153D01*
X0154428Y0041841D01*
X0152864Y0040164D02*
X0149600Y0040164D01*
X0149600Y0038566D02*
X0152366Y0038566D01*
X0152346Y0038099D02*
X0156721Y0038099D01*
X0152346Y0038099D01*
X0152489Y0036967D02*
X0150593Y0036967D01*
X0152191Y0035369D02*
X0153297Y0035369D01*
X0156721Y0038099D02*
X0156721Y0038099D01*
X0156721Y0042474D01*
X0156721Y0038099D01*
X0156721Y0038099D01*
X0156721Y0038566D02*
X0156721Y0038566D01*
X0156721Y0040164D02*
X0156721Y0040164D01*
X0156721Y0041763D02*
X0156721Y0041763D01*
X0159122Y0041763D02*
X0170445Y0041763D01*
X0170348Y0041859D02*
X0172489Y0039718D01*
X0175286Y0038560D01*
X0178314Y0038560D01*
X0181111Y0039718D01*
X0183252Y0041859D01*
X0184410Y0044656D01*
X0184410Y0047684D01*
X0183252Y0050481D01*
X0181111Y0052622D01*
X0178314Y0053780D01*
X0175286Y0053780D01*
X0172489Y0052622D01*
X0170348Y0050481D01*
X0169190Y0047684D01*
X0169190Y0044656D01*
X0170348Y0041859D01*
X0172043Y0040164D02*
X0160579Y0040164D01*
X0164299Y0038566D02*
X0175272Y0038566D01*
X0178328Y0038566D02*
X0196650Y0038566D01*
X0196650Y0040164D02*
X0181557Y0040164D01*
X0183155Y0041763D02*
X0196650Y0041763D01*
X0196650Y0043361D02*
X0183874Y0043361D01*
X0184410Y0044960D02*
X0196650Y0044960D01*
X0196650Y0046558D02*
X0184410Y0046558D01*
X0184214Y0048157D02*
X0196650Y0048157D01*
X0196650Y0049755D02*
X0183552Y0049755D01*
X0182379Y0051354D02*
X0196650Y0051354D01*
X0196650Y0052952D02*
X0180313Y0052952D01*
X0173287Y0052952D02*
X0150581Y0052952D01*
X0150581Y0051354D02*
X0171221Y0051354D01*
X0170048Y0049755D02*
X0150581Y0049755D01*
X0149600Y0048157D02*
X0169386Y0048157D01*
X0169190Y0046558D02*
X0149600Y0046558D01*
X0149600Y0044960D02*
X0169190Y0044960D01*
X0165562Y0036967D02*
X0196650Y0036967D01*
X0196650Y0035369D02*
X0166020Y0035369D01*
X0165909Y0033770D02*
X0196650Y0033770D01*
X0196650Y0032172D02*
X0165138Y0032172D01*
X0165601Y0030573D02*
X0196650Y0030573D01*
X0196650Y0028975D02*
X0166020Y0028975D01*
X0165870Y0027376D02*
X0196650Y0027376D01*
X0196650Y0025778D02*
X0165043Y0025778D01*
X0164246Y0024179D02*
X0173208Y0024179D01*
X0172489Y0023882D02*
X0175286Y0025040D01*
X0178314Y0025040D01*
X0181111Y0023882D01*
X0183252Y0021741D01*
X0184410Y0018944D01*
X0184410Y0015916D01*
X0183252Y0013119D01*
X0181111Y0010978D01*
X0178314Y0009820D01*
X0175286Y0009820D01*
X0172489Y0010978D01*
X0170348Y0013119D01*
X0169190Y0015916D01*
X0169190Y0018944D01*
X0170348Y0021741D01*
X0172489Y0023882D01*
X0171188Y0022581D02*
X0164246Y0022581D01*
X0164246Y0020982D02*
X0170034Y0020982D01*
X0169372Y0019384D02*
X0163343Y0019384D01*
X0161745Y0017785D02*
X0169190Y0017785D01*
X0169190Y0016187D02*
X0160146Y0016187D01*
X0158548Y0014588D02*
X0169740Y0014588D01*
X0170478Y0012990D02*
X0156949Y0012990D01*
X0155581Y0011391D02*
X0172076Y0011391D01*
X0181524Y0011391D02*
X0196650Y0011391D01*
X0196650Y0009793D02*
X0155581Y0009793D01*
X0154585Y0008194D02*
X0196650Y0008194D01*
X0196650Y0006596D02*
X0081630Y0006596D01*
X0083572Y0008194D02*
X0084479Y0008194D01*
X0081800Y0012863D02*
X0079674Y0010737D01*
X0080737Y0015737D01*
X0081800Y0016800D02*
X0081800Y0012863D01*
X0079674Y0010737D02*
X0071800Y0010737D01*
X0066800Y0021800D01*
X0024300Y0021800D01*
X0019700Y0022581D02*
X0003800Y0022581D01*
X0003800Y0024179D02*
X0020174Y0024179D01*
X0021772Y0025778D02*
X0003800Y0025778D01*
X0003800Y0027376D02*
X0027200Y0027376D01*
X0027200Y0025778D02*
X0026828Y0025778D01*
X0027469Y0028975D02*
X0003800Y0028975D01*
X0003800Y0030573D02*
X0029068Y0030573D01*
X0031800Y0026800D02*
X0081800Y0041800D01*
X0101800Y0056800D01*
X0106414Y0060945D02*
X0114000Y0060945D01*
X0114000Y0062543D02*
X0106144Y0062543D01*
X0105315Y0062200D02*
X0107006Y0062900D01*
X0108300Y0064194D01*
X0109000Y0065885D01*
X0109000Y0067715D01*
X0108300Y0069406D01*
X0107006Y0070700D01*
X0105315Y0071400D01*
X0100360Y0071400D01*
X0101160Y0072200D01*
X0105315Y0072200D01*
X0107006Y0072900D01*
X0108300Y0074194D01*
X0109000Y0075885D01*
X0109000Y0077715D01*
X0108300Y0079406D01*
X0107006Y0080700D01*
X0105315Y0081400D01*
X0098285Y0081400D01*
X0096594Y0080700D01*
X0095300Y0079406D01*
X0094600Y0077715D01*
X0094600Y0075885D01*
X0095281Y0074241D01*
X0090640Y0069600D01*
X0071810Y0069600D01*
X0071632Y0070029D01*
X0070029Y0071632D01*
X0067934Y0072500D01*
X0065666Y0072500D01*
X0063571Y0071632D01*
X0063513Y0071574D01*
X0012500Y0097080D01*
X0012500Y0097934D01*
X0011632Y0100029D01*
X0010029Y0101632D01*
X0009624Y0101800D01*
X0010029Y0101968D01*
X0011632Y0103571D01*
X0011810Y0104000D01*
X0063209Y0104000D01*
X0064190Y0103019D01*
X0069410Y0103019D01*
X0070581Y0104190D01*
X0070581Y0109410D01*
X0069410Y0110581D01*
X0064190Y0110581D01*
X0063209Y0109600D01*
X0011810Y0109600D01*
X0011632Y0110029D01*
X0010029Y0111632D01*
X0009624Y0111800D01*
X0010029Y0111968D01*
X0011632Y0113571D01*
X0011810Y0114000D01*
X0038209Y0114000D01*
X0039190Y0113019D01*
X0044410Y0113019D01*
X0045581Y0114190D01*
X0045581Y0119410D01*
X0044410Y0120581D01*
X0039190Y0120581D01*
X0038209Y0119600D01*
X0011810Y0119600D01*
X0011632Y0120029D01*
X0010029Y0121632D01*
X0009624Y0121800D01*
X0010029Y0121968D01*
X0011632Y0123571D01*
X0011810Y0124000D01*
X0055640Y0124000D01*
X0059426Y0120214D01*
X0060214Y0119426D01*
X0061243Y0119000D01*
X0065640Y0119000D01*
X0074426Y0110214D01*
X0075214Y0109426D01*
X0076243Y0109000D01*
X0095383Y0109000D01*
X0095122Y0108489D01*
X0094908Y0107830D01*
X0094800Y0107146D01*
X0094800Y0106800D01*
X0101800Y0106800D01*
X0108800Y0106800D01*
X0108800Y0107146D01*
X0108692Y0107830D01*
X0108478Y0108489D01*
X0108163Y0109106D01*
X0108036Y0109281D01*
X0108386Y0109426D01*
X0109174Y0110214D01*
X0118386Y0119426D01*
X0119174Y0120214D01*
X0119600Y0121243D01*
X0119600Y0152357D01*
X0119174Y0153386D01*
X0114174Y0158386D01*
X0113386Y0159174D01*
X0112357Y0159600D01*
X0108105Y0159600D01*
X0107006Y0160700D01*
X0105315Y0161400D01*
X0098285Y0161400D01*
X0096594Y0160700D01*
X0095300Y0159406D01*
X0094600Y0157715D01*
X0094600Y0155885D01*
X0095300Y0154194D01*
X0096594Y0152900D01*
X0098285Y0152200D01*
X0105315Y0152200D01*
X0107006Y0152900D01*
X0108105Y0154000D01*
X0110640Y0154000D01*
X0114000Y0150640D01*
X0114000Y0122960D01*
X0108928Y0117888D01*
X0108300Y0119406D01*
X0107006Y0120700D01*
X0105315Y0121400D01*
X0098285Y0121400D01*
X0096594Y0120700D01*
X0095300Y0119406D01*
X0094600Y0117715D01*
X0094600Y0115885D01*
X0095132Y0114600D01*
X0077960Y0114600D01*
X0068386Y0124174D01*
X0067357Y0124600D01*
X0062960Y0124600D01*
X0058386Y0129174D01*
X0057357Y0129600D01*
X0011810Y0129600D01*
X0011632Y0130029D01*
X0010029Y0131632D01*
X0009624Y0131800D01*
X0010029Y0131968D01*
X0011632Y0133571D01*
X0012500Y0135666D01*
X0012500Y0137934D01*
X0011632Y0140029D01*
X0011574Y0140087D01*
X0013530Y0144000D01*
X0052357Y0144000D01*
X0053386Y0144426D01*
X0061979Y0153019D01*
X0064410Y0153019D01*
X0065581Y0154190D01*
X0065581Y0159410D01*
X0064410Y0160581D01*
X0059190Y0160581D01*
X0058019Y0159410D01*
X0058019Y0156979D01*
X0050640Y0149600D01*
X0011899Y0149600D01*
X0011443Y0149632D01*
X0011346Y0149600D01*
X0011243Y0149600D01*
X0010820Y0149425D01*
X0010386Y0149280D01*
X0010309Y0149213D01*
X0010214Y0149174D01*
X0009890Y0148850D01*
X0009545Y0148550D01*
X0009499Y0148459D01*
X0009426Y0148386D01*
X0009251Y0147963D01*
X0006520Y0142500D01*
X0005666Y0142500D01*
X0003800Y0141727D01*
X0003800Y0153295D01*
X0004895Y0152200D01*
X0008705Y0152200D01*
X0011400Y0154895D01*
X0011400Y0158705D01*
X0008705Y0161400D01*
X0004895Y0161400D01*
X0003800Y0160305D01*
X0003800Y0168577D01*
X0004977Y0167400D01*
X0006800Y0167400D01*
X0008623Y0167400D01*
X0011200Y0169977D01*
X0011200Y0171800D01*
X0011200Y0173623D01*
X0008623Y0176200D01*
X0006800Y0176200D01*
X0006800Y0171800D01*
X0006800Y0171800D01*
X0011200Y0171800D01*
X0006800Y0171800D01*
X0006800Y0171800D01*
X0006800Y0176200D01*
X0004977Y0176200D01*
X0003800Y0175023D01*
X0003800Y0196650D01*
X0053615Y0196650D01*
X0053571Y0196632D01*
X0051968Y0195029D01*
X0051100Y0192934D01*
X0051100Y0190666D01*
X0051968Y0188571D01*
X0053571Y0186968D01*
X0055666Y0186100D01*
X0057934Y0186100D01*
X0060029Y0186968D01*
X0061632Y0188571D01*
X0061800Y0188976D01*
X0061968Y0188571D01*
X0063571Y0186968D01*
X0065666Y0186100D01*
X0067934Y0186100D01*
X0070029Y0186968D01*
X0071632Y0188571D01*
X0071919Y0189264D01*
X0072096Y0188917D01*
X0072605Y0188217D01*
X0073217Y0187605D01*
X0073917Y0187096D01*
X0074689Y0186703D01*
X0075512Y0186435D01*
X0076367Y0186300D01*
X0076600Y0186300D01*
X0076600Y0191600D01*
X0077000Y0191600D01*
X0077000Y0192000D01*
X0082300Y0192000D01*
X0082300Y0192233D01*
X0082165Y0193088D01*
X0081897Y0193911D01*
X0081504Y0194683D01*
X0080995Y0195383D01*
X0080383Y0195995D01*
X0079683Y0196504D01*
X0079395Y0196650D01*
X0196650Y0196650D01*
X0196650Y0141996D01*
X0195434Y0142500D01*
X0193166Y0142500D01*
X0191071Y0141632D01*
X0190420Y0140981D01*
X0139000Y0157436D01*
X0139000Y0157715D01*
X0138300Y0159406D01*
X0137006Y0160700D01*
X0135315Y0161400D01*
X0128285Y0161400D01*
X0126594Y0160700D01*
X0125300Y0159406D01*
X0124600Y0157715D01*
X0124600Y0155885D01*
X0125300Y0154194D01*
X0126594Y0152900D01*
X0128285Y0152200D01*
X0135315Y0152200D01*
X0136044Y0152502D01*
X0188600Y0135684D01*
X0188600Y0135666D01*
X0189468Y0133571D01*
X0191071Y0131968D01*
X0191476Y0131800D01*
X0191071Y0131632D01*
X0190420Y0130981D01*
X0139000Y0147436D01*
X0139000Y0147715D01*
X0138300Y0149406D01*
X0137006Y0150700D01*
X0135315Y0151400D01*
X0128285Y0151400D01*
X0126594Y0150700D01*
X0125300Y0149406D01*
X0124600Y0147715D01*
X0124600Y0145885D01*
X0125300Y0144194D01*
X0126594Y0142900D01*
X0128285Y0142200D01*
X0135315Y0142200D01*
X0136044Y0142502D01*
X0188600Y0125684D01*
X0188600Y0125666D01*
X0189468Y0123571D01*
X0191071Y0121968D01*
X0191476Y0121800D01*
X0191071Y0121632D01*
X0190420Y0120981D01*
X0139000Y0137436D01*
X0139000Y0137715D01*
X0138300Y0139406D01*
X0137006Y0140700D01*
X0135315Y0141400D01*
X0128285Y0141400D01*
X0126594Y0140700D01*
X0125300Y0139406D01*
X0124600Y0137715D01*
X0124600Y0135885D01*
X0125300Y0134194D01*
X0126594Y0132900D01*
X0128285Y0132200D01*
X0135315Y0132200D01*
X0136044Y0132502D01*
X0188600Y0115684D01*
X0188600Y0115666D01*
X0189468Y0113571D01*
X0191071Y0111968D01*
X0191476Y0111800D01*
X0191071Y0111632D01*
X0189468Y0110029D01*
X0188600Y0107934D01*
X0188600Y0107170D01*
X0134913Y0081400D01*
X0128285Y0081400D01*
X0126594Y0080700D01*
X0125300Y0079406D01*
X0124600Y0077715D01*
X0124600Y0075885D01*
X0125300Y0074194D01*
X0126594Y0072900D01*
X0128285Y0072200D01*
X0135315Y0072200D01*
X0137006Y0072900D01*
X0138300Y0074194D01*
X0139000Y0075885D01*
X0139000Y0077150D01*
X0190952Y0102087D01*
X0191071Y0101968D01*
X0191476Y0101800D01*
X0191071Y0101632D01*
X0189468Y0100029D01*
X0188600Y0097934D01*
X0188600Y0097170D01*
X0134913Y0071400D01*
X0128285Y0071400D01*
X0126594Y0070700D01*
X0125300Y0069406D01*
X0124600Y0067715D01*
X0124600Y0065885D01*
X0125300Y0064194D01*
X0126594Y0062900D01*
X0128285Y0062200D01*
X0135315Y0062200D01*
X0137006Y0062900D01*
X0138300Y0064194D01*
X0139000Y0065885D01*
X0139000Y0067150D01*
X0190952Y0092087D01*
X0191071Y0091968D01*
X0191476Y0091800D01*
X0191071Y0091632D01*
X0189468Y0090029D01*
X0188600Y0087934D01*
X0188600Y0087170D01*
X0134913Y0061400D01*
X0128285Y0061400D01*
X0126594Y0060700D01*
X0125300Y0059406D01*
X0124600Y0057715D01*
X0124600Y0055885D01*
X0125300Y0054194D01*
X0126594Y0052900D01*
X0128285Y0052200D01*
X0135315Y0052200D01*
X0137006Y0052900D01*
X0138300Y0054194D01*
X0139000Y0055885D01*
X0139000Y0057150D01*
X0190952Y0082087D01*
X0191071Y0081968D01*
X0191476Y0081800D01*
X0191071Y0081632D01*
X0189468Y0080029D01*
X0188600Y0077934D01*
X0188600Y0075666D01*
X0189468Y0073571D01*
X0191071Y0071968D01*
X0191764Y0071681D01*
X0191417Y0071504D01*
X0190717Y0070995D01*
X0190105Y0070383D01*
X0189596Y0069683D01*
X0189203Y0068911D01*
X0188935Y0068088D01*
X0188800Y0067233D01*
X0188800Y0067000D01*
X0194100Y0067000D01*
X0194100Y0066600D01*
X0194500Y0066600D01*
X0194500Y0061300D01*
X0194733Y0061300D01*
X0195588Y0061435D01*
X0196411Y0061703D01*
X0196650Y0061825D01*
X0196650Y0003800D01*
X0003800Y0003800D01*
X0003800Y0062181D01*
X0003917Y0062096D01*
X0004689Y0061703D01*
X0005512Y0061435D01*
X0006367Y0061300D01*
X0006600Y0061300D01*
X0006600Y0066600D01*
X0007000Y0066600D01*
X0007000Y0067000D01*
X0012300Y0067000D01*
X0012300Y0067233D01*
X0012165Y0068088D01*
X0011897Y0068911D01*
X0011504Y0069683D01*
X0010995Y0070383D01*
X0010383Y0070995D01*
X0009683Y0071504D01*
X0009336Y0071681D01*
X0010029Y0071968D01*
X0011632Y0073571D01*
X0012500Y0075666D01*
X0012500Y0077934D01*
X0011632Y0080029D01*
X0010029Y0081632D01*
X0009624Y0081800D01*
X0010029Y0081968D01*
X0011632Y0083571D01*
X0012500Y0085666D01*
X0012500Y0087934D01*
X0011632Y0090029D01*
X0010029Y0091632D01*
X0009624Y0091800D01*
X0010029Y0091968D01*
X0010087Y0092026D01*
X0061100Y0066520D01*
X0061100Y0065666D01*
X0061968Y0063571D01*
X0063571Y0061968D01*
X0063976Y0061800D01*
X0063571Y0061632D01*
X0061968Y0060029D01*
X0061100Y0057934D01*
X0061100Y0055666D01*
X0061968Y0053571D01*
X0063571Y0051968D01*
X0064264Y0051681D01*
X0063917Y0051504D01*
X0063217Y0050995D01*
X0062605Y0050383D01*
X0062096Y0049683D01*
X0061703Y0048911D01*
X0061435Y0048088D01*
X0061300Y0047233D01*
X0061300Y0047000D01*
X0066600Y0047000D01*
X0066600Y0046600D01*
X0067000Y0046600D01*
X0067000Y0047000D01*
X0072300Y0047000D01*
X0072300Y0047233D01*
X0072165Y0048088D01*
X0071897Y0048911D01*
X0071504Y0049683D01*
X0070995Y0050383D01*
X0070383Y0050995D01*
X0069683Y0051504D01*
X0069336Y0051681D01*
X0070029Y0051968D01*
X0071632Y0053571D01*
X0072500Y0055666D01*
X0072500Y0057934D01*
X0071632Y0060029D01*
X0070029Y0061632D01*
X0069624Y0061800D01*
X0070029Y0061968D01*
X0071632Y0063571D01*
X0071810Y0064000D01*
X0092357Y0064000D01*
X0093386Y0064426D01*
X0094672Y0065712D01*
X0095300Y0064194D01*
X0096594Y0062900D01*
X0098285Y0062200D01*
X0105315Y0062200D01*
X0108247Y0064142D02*
X0114000Y0064142D01*
X0114000Y0065740D02*
X0108940Y0065740D01*
X0109000Y0067339D02*
X0114000Y0067339D01*
X0114000Y0068937D02*
X0108494Y0068937D01*
X0107169Y0070536D02*
X0114000Y0070536D01*
X0114000Y0072134D02*
X0101094Y0072134D01*
X0101800Y0076800D02*
X0091800Y0066800D01*
X0066800Y0066800D01*
X0006800Y0096800D01*
X0010753Y0100908D02*
X0024685Y0100908D01*
X0024977Y0101200D02*
X0022400Y0098623D01*
X0022400Y0096800D01*
X0026800Y0096800D01*
X0031200Y0096800D01*
X0031200Y0098623D01*
X0028623Y0101200D01*
X0026800Y0101200D01*
X0026800Y0096800D01*
X0026800Y0096800D01*
X0026800Y0096800D01*
X0031200Y0096800D01*
X0031200Y0094977D01*
X0028623Y0092400D01*
X0026800Y0092400D01*
X0026800Y0096800D01*
X0026800Y0096800D01*
X0026800Y0096800D01*
X0026800Y0101200D01*
X0024977Y0101200D01*
X0026800Y0100908D02*
X0026800Y0100908D01*
X0026800Y0099309D02*
X0026800Y0099309D01*
X0026800Y0097711D02*
X0026800Y0097711D01*
X0026800Y0096800D02*
X0022400Y0096800D01*
X0022400Y0094977D01*
X0024977Y0092400D01*
X0026800Y0092400D01*
X0026800Y0096800D01*
X0026800Y0096112D02*
X0026800Y0096112D01*
X0026800Y0094514D02*
X0026800Y0094514D01*
X0026800Y0092915D02*
X0026800Y0092915D01*
X0029138Y0092915D02*
X0064179Y0092915D01*
X0064895Y0092200D02*
X0068705Y0092200D01*
X0071400Y0094895D01*
X0071400Y0098705D01*
X0068705Y0101400D01*
X0064895Y0101400D01*
X0062200Y0098705D01*
X0062200Y0094895D01*
X0064895Y0092200D01*
X0062581Y0094514D02*
X0030736Y0094514D01*
X0031200Y0096112D02*
X0062200Y0096112D01*
X0062200Y0097711D02*
X0031200Y0097711D01*
X0030513Y0099309D02*
X0062804Y0099309D01*
X0064402Y0100908D02*
X0028915Y0100908D01*
X0023087Y0099309D02*
X0011930Y0099309D01*
X0012500Y0097711D02*
X0022400Y0097711D01*
X0022400Y0096112D02*
X0014437Y0096112D01*
X0017634Y0094514D02*
X0022864Y0094514D01*
X0024462Y0092915D02*
X0020831Y0092915D01*
X0024028Y0091317D02*
X0076308Y0091317D01*
X0076300Y0091367D02*
X0076435Y0090512D01*
X0076703Y0089689D01*
X0077096Y0088917D01*
X0077605Y0088217D01*
X0078217Y0087605D01*
X0078917Y0087096D01*
X0079264Y0086919D01*
X0078571Y0086632D01*
X0076968Y0085029D01*
X0076100Y0082934D01*
X0076100Y0080666D01*
X0076968Y0078571D01*
X0078571Y0076968D01*
X0080666Y0076100D01*
X0082934Y0076100D01*
X0085029Y0076968D01*
X0086632Y0078571D01*
X0087500Y0080666D01*
X0087500Y0082934D01*
X0086632Y0085029D01*
X0085029Y0086632D01*
X0084336Y0086919D01*
X0084683Y0087096D01*
X0085383Y0087605D01*
X0085995Y0088217D01*
X0086504Y0088917D01*
X0086897Y0089689D01*
X0087165Y0090512D01*
X0087300Y0091367D01*
X0087300Y0091600D01*
X0082000Y0091600D01*
X0082000Y0092000D01*
X0087300Y0092000D01*
X0087300Y0092233D01*
X0087165Y0093088D01*
X0086897Y0093911D01*
X0086504Y0094683D01*
X0085995Y0095383D01*
X0085383Y0095995D01*
X0084683Y0096504D01*
X0084336Y0096681D01*
X0085029Y0096968D01*
X0085940Y0097879D01*
X0094679Y0095694D01*
X0095300Y0094194D01*
X0096594Y0092900D01*
X0098285Y0092200D01*
X0105315Y0092200D01*
X0107006Y0092900D01*
X0108300Y0094194D01*
X0109000Y0095885D01*
X0109000Y0097715D01*
X0108300Y0099406D01*
X0107006Y0100700D01*
X0105315Y0101400D01*
X0098285Y0101400D01*
X0097028Y0100879D01*
X0087349Y0103299D01*
X0086632Y0105029D01*
X0085029Y0106632D01*
X0082934Y0107500D01*
X0080666Y0107500D01*
X0078571Y0106632D01*
X0076968Y0105029D01*
X0076100Y0102934D01*
X0076100Y0100666D01*
X0076968Y0098571D01*
X0078571Y0096968D01*
X0079264Y0096681D01*
X0078917Y0096504D01*
X0078217Y0095995D01*
X0077605Y0095383D01*
X0077096Y0094683D01*
X0076703Y0093911D01*
X0076435Y0093088D01*
X0076300Y0092233D01*
X0076300Y0092000D01*
X0081600Y0092000D01*
X0081600Y0091600D01*
X0076300Y0091600D01*
X0076300Y0091367D01*
X0076408Y0092915D02*
X0069421Y0092915D01*
X0071019Y0094514D02*
X0077010Y0094514D01*
X0078378Y0096112D02*
X0071400Y0096112D01*
X0071400Y0097711D02*
X0077828Y0097711D01*
X0076662Y0099309D02*
X0070796Y0099309D01*
X0069198Y0100908D02*
X0076100Y0100908D01*
X0076100Y0102506D02*
X0010567Y0102506D01*
X0006800Y0106800D02*
X0066800Y0106800D01*
X0070581Y0107302D02*
X0080188Y0107302D01*
X0077642Y0105703D02*
X0070581Y0105703D01*
X0070495Y0104105D02*
X0076585Y0104105D01*
X0081800Y0101800D02*
X0101800Y0096800D01*
X0106503Y0100908D02*
X0114000Y0100908D01*
X0114000Y0102506D02*
X0105417Y0102506D01*
X0105430Y0102508D02*
X0106089Y0102722D01*
X0106706Y0103037D01*
X0107266Y0103444D01*
X0107756Y0103934D01*
X0108163Y0104494D01*
X0108478Y0105111D01*
X0108692Y0105770D01*
X0108800Y0106454D01*
X0108800Y0106800D01*
X0101800Y0106800D01*
X0101800Y0106800D01*
X0101800Y0102400D01*
X0104746Y0102400D01*
X0105430Y0102508D01*
X0107880Y0104105D02*
X0114000Y0104105D01*
X0114000Y0105703D02*
X0108670Y0105703D01*
X0108775Y0107302D02*
X0114000Y0107302D01*
X0114000Y0107357D02*
X0114000Y0050391D01*
X0113019Y0049410D01*
X0113019Y0044190D01*
X0114190Y0043019D01*
X0119410Y0043019D01*
X0120581Y0044190D01*
X0120581Y0049410D01*
X0119600Y0050391D01*
X0119600Y0105640D01*
X0126782Y0112822D01*
X0128285Y0112200D01*
X0135315Y0112200D01*
X0137006Y0112900D01*
X0138300Y0114194D01*
X0139000Y0115885D01*
X0139000Y0117715D01*
X0138300Y0119406D01*
X0137006Y0120700D01*
X0135315Y0121400D01*
X0128285Y0121400D01*
X0126594Y0120700D01*
X0125300Y0119406D01*
X0125197Y0119157D01*
X0124426Y0118386D01*
X0114426Y0108386D01*
X0114000Y0107357D01*
X0114940Y0108900D02*
X0108268Y0108900D01*
X0109174Y0110214D02*
X0109174Y0110214D01*
X0109459Y0110499D02*
X0116539Y0110499D01*
X0118137Y0112097D02*
X0111057Y0112097D01*
X0112656Y0113696D02*
X0119736Y0113696D01*
X0121335Y0115294D02*
X0114254Y0115294D01*
X0115853Y0116893D02*
X0122933Y0116893D01*
X0124532Y0118491D02*
X0117451Y0118491D01*
X0119050Y0120090D02*
X0125984Y0120090D01*
X0126800Y0116800D02*
X0131800Y0116800D01*
X0126800Y0116800D02*
X0116800Y0106800D01*
X0116800Y0046800D01*
X0119752Y0043361D02*
X0124402Y0043361D01*
X0124983Y0044960D02*
X0120581Y0044960D01*
X0120581Y0046558D02*
X0124600Y0046558D01*
X0124783Y0048157D02*
X0120581Y0048157D01*
X0120235Y0049755D02*
X0125650Y0049755D01*
X0128174Y0051354D02*
X0119600Y0051354D01*
X0119600Y0052952D02*
X0126542Y0052952D01*
X0125153Y0054551D02*
X0119600Y0054551D01*
X0119600Y0056149D02*
X0124600Y0056149D01*
X0124614Y0057748D02*
X0119600Y0057748D01*
X0119600Y0059346D02*
X0125276Y0059346D01*
X0127186Y0060945D02*
X0119600Y0060945D01*
X0119600Y0062543D02*
X0127456Y0062543D01*
X0125353Y0064142D02*
X0119600Y0064142D01*
X0119600Y0065740D02*
X0124660Y0065740D01*
X0124600Y0067339D02*
X0119600Y0067339D01*
X0119600Y0068937D02*
X0125106Y0068937D01*
X0126431Y0070536D02*
X0119600Y0070536D01*
X0119600Y0072134D02*
X0136443Y0072134D01*
X0137838Y0073733D02*
X0139773Y0073733D01*
X0138771Y0075332D02*
X0143104Y0075332D01*
X0141872Y0078529D02*
X0149764Y0078529D01*
X0148532Y0081726D02*
X0156424Y0081726D01*
X0155193Y0084923D02*
X0163085Y0084923D01*
X0166415Y0086521D02*
X0158523Y0086521D01*
X0159755Y0083324D02*
X0151862Y0083324D01*
X0153094Y0080127D02*
X0145202Y0080127D01*
X0146434Y0076930D02*
X0139000Y0076930D01*
X0135591Y0081726D02*
X0119600Y0081726D01*
X0119600Y0083324D02*
X0126498Y0083324D01*
X0126334Y0083444D02*
X0126894Y0083037D01*
X0127511Y0082722D01*
X0128170Y0082508D01*
X0128854Y0082400D01*
X0131800Y0082400D01*
X0134746Y0082400D01*
X0135430Y0082508D01*
X0136089Y0082722D01*
X0136706Y0083037D01*
X0137266Y0083444D01*
X0137756Y0083934D01*
X0138163Y0084494D01*
X0138478Y0085111D01*
X0138692Y0085770D01*
X0138800Y0086454D01*
X0138800Y0086800D01*
X0138800Y0087146D01*
X0138692Y0087830D01*
X0138478Y0088489D01*
X0138163Y0089106D01*
X0137756Y0089666D01*
X0137266Y0090156D01*
X0136706Y0090563D01*
X0136089Y0090878D01*
X0135430Y0091092D01*
X0134746Y0091200D01*
X0131800Y0091200D01*
X0131800Y0086800D01*
X0131800Y0086800D01*
X0138800Y0086800D01*
X0131800Y0086800D01*
X0131800Y0086800D01*
X0131800Y0082400D01*
X0131800Y0086800D01*
X0131800Y0086800D01*
X0131800Y0086800D01*
X0124800Y0086800D01*
X0124800Y0087146D01*
X0124908Y0087830D01*
X0125122Y0088489D01*
X0125437Y0089106D01*
X0125844Y0089666D01*
X0126334Y0090156D01*
X0126894Y0090563D01*
X0127511Y0090878D01*
X0128170Y0091092D01*
X0128854Y0091200D01*
X0131800Y0091200D01*
X0131800Y0086800D01*
X0124800Y0086800D01*
X0124800Y0086454D01*
X0124908Y0085770D01*
X0125122Y0085111D01*
X0125437Y0084494D01*
X0125844Y0083934D01*
X0126334Y0083444D01*
X0125218Y0084923D02*
X0119600Y0084923D01*
X0119600Y0086521D02*
X0124800Y0086521D01*
X0125002Y0088120D02*
X0119600Y0088120D01*
X0119600Y0089718D02*
X0125896Y0089718D01*
X0126594Y0092900D02*
X0128285Y0092200D01*
X0135315Y0092200D01*
X0137006Y0092900D01*
X0138300Y0094194D01*
X0139000Y0095885D01*
X0139000Y0097270D01*
X0149550Y0102545D01*
X0149895Y0102200D01*
X0153705Y0102200D01*
X0156400Y0104895D01*
X0156400Y0108705D01*
X0153705Y0111400D01*
X0149895Y0111400D01*
X0147200Y0108705D01*
X0147200Y0107630D01*
X0134739Y0101400D01*
X0128285Y0101400D01*
X0126594Y0100700D01*
X0125300Y0099406D01*
X0124600Y0097715D01*
X0124600Y0095885D01*
X0125300Y0094194D01*
X0126594Y0092900D01*
X0126579Y0092915D02*
X0119600Y0092915D01*
X0119600Y0091317D02*
X0155572Y0091317D01*
X0152242Y0089718D02*
X0137704Y0089718D01*
X0138598Y0088120D02*
X0148912Y0088120D01*
X0145582Y0086521D02*
X0138800Y0086521D01*
X0138382Y0084923D02*
X0142252Y0084923D01*
X0138921Y0083324D02*
X0137102Y0083324D01*
X0131800Y0083324D02*
X0131800Y0083324D01*
X0131800Y0084923D02*
X0131800Y0084923D01*
X0131800Y0086521D02*
X0131800Y0086521D01*
X0131800Y0088120D02*
X0131800Y0088120D01*
X0131800Y0089718D02*
X0131800Y0089718D01*
X0137021Y0092915D02*
X0158903Y0092915D01*
X0162233Y0094514D02*
X0138432Y0094514D01*
X0139000Y0096112D02*
X0165563Y0096112D01*
X0168893Y0097711D02*
X0139882Y0097711D01*
X0143079Y0099309D02*
X0172224Y0099309D01*
X0175554Y0100908D02*
X0146276Y0100908D01*
X0149473Y0102506D02*
X0149588Y0102506D01*
X0154012Y0102506D02*
X0178884Y0102506D01*
X0182214Y0104105D02*
X0155610Y0104105D01*
X0156400Y0105703D02*
X0185545Y0105703D01*
X0188600Y0107302D02*
X0156400Y0107302D01*
X0156205Y0108900D02*
X0189000Y0108900D01*
X0189938Y0110499D02*
X0154607Y0110499D01*
X0153623Y0112400D02*
X0151800Y0112400D01*
X0151800Y0116800D01*
X0151800Y0116800D01*
X0151800Y0121200D01*
X0153623Y0121200D01*
X0156200Y0118623D01*
X0156200Y0116800D01*
X0151800Y0116800D01*
X0151800Y0116800D01*
X0151800Y0116800D01*
X0147400Y0116800D01*
X0147400Y0118623D01*
X0149977Y0121200D01*
X0151800Y0121200D01*
X0151800Y0116800D01*
X0156200Y0116800D01*
X0156200Y0114977D01*
X0153623Y0112400D01*
X0151800Y0112400D02*
X0151800Y0116800D01*
X0151800Y0116800D01*
X0147400Y0116800D01*
X0147400Y0114977D01*
X0149977Y0112400D01*
X0151800Y0112400D01*
X0151800Y0113696D02*
X0151800Y0113696D01*
X0151800Y0115294D02*
X0151800Y0115294D01*
X0151800Y0116893D02*
X0151800Y0116893D01*
X0151800Y0118491D02*
X0151800Y0118491D01*
X0151800Y0120090D02*
X0151800Y0120090D01*
X0154733Y0120090D02*
X0174832Y0120090D01*
X0169837Y0121688D02*
X0119600Y0121688D01*
X0119600Y0123287D02*
X0126208Y0123287D01*
X0126594Y0122900D02*
X0125300Y0124194D01*
X0124600Y0125885D01*
X0124600Y0127715D01*
X0125300Y0129406D01*
X0126594Y0130700D01*
X0128285Y0131400D01*
X0135315Y0131400D01*
X0137006Y0130700D01*
X0138300Y0129406D01*
X0139000Y0127715D01*
X0139000Y0125885D01*
X0138300Y0124194D01*
X0137006Y0122900D01*
X0135315Y0122200D01*
X0128285Y0122200D01*
X0126594Y0122900D01*
X0125014Y0124885D02*
X0119600Y0124885D01*
X0119600Y0126484D02*
X0124600Y0126484D01*
X0124752Y0128082D02*
X0119600Y0128082D01*
X0119600Y0129681D02*
X0125576Y0129681D01*
X0127994Y0131279D02*
X0119600Y0131279D01*
X0119600Y0132878D02*
X0126648Y0132878D01*
X0125183Y0134476D02*
X0119600Y0134476D01*
X0119600Y0136075D02*
X0124600Y0136075D01*
X0124600Y0137673D02*
X0119600Y0137673D01*
X0119600Y0139272D02*
X0125245Y0139272D01*
X0127007Y0140870D02*
X0119600Y0140870D01*
X0119600Y0142469D02*
X0127636Y0142469D01*
X0125427Y0144068D02*
X0119600Y0144068D01*
X0119600Y0145666D02*
X0124691Y0145666D01*
X0124600Y0147265D02*
X0119600Y0147265D01*
X0119600Y0148863D02*
X0125076Y0148863D01*
X0126356Y0150462D02*
X0119600Y0150462D01*
X0119600Y0152060D02*
X0137425Y0152060D01*
X0137244Y0150462D02*
X0142421Y0150462D01*
X0138524Y0148863D02*
X0147416Y0148863D01*
X0144531Y0145666D02*
X0157407Y0145666D01*
X0154521Y0142469D02*
X0167397Y0142469D01*
X0164512Y0139272D02*
X0177388Y0139272D01*
X0174503Y0136075D02*
X0187379Y0136075D01*
X0189093Y0134476D02*
X0179498Y0134476D01*
X0182383Y0137673D02*
X0169507Y0137673D01*
X0172393Y0140870D02*
X0159517Y0140870D01*
X0162402Y0144068D02*
X0149526Y0144068D01*
X0152411Y0147265D02*
X0139535Y0147265D01*
X0136147Y0142469D02*
X0135964Y0142469D01*
X0136593Y0140870D02*
X0141143Y0140870D01*
X0138355Y0139272D02*
X0146138Y0139272D01*
X0143253Y0136075D02*
X0156129Y0136075D01*
X0153244Y0132878D02*
X0166119Y0132878D01*
X0163234Y0129681D02*
X0176110Y0129681D01*
X0173225Y0126484D02*
X0186101Y0126484D01*
X0188923Y0124885D02*
X0178220Y0124885D01*
X0181105Y0128082D02*
X0168230Y0128082D01*
X0171115Y0131279D02*
X0158239Y0131279D01*
X0161124Y0134476D02*
X0148248Y0134476D01*
X0151133Y0137673D02*
X0139000Y0137673D01*
X0139865Y0131279D02*
X0135606Y0131279D01*
X0138024Y0129681D02*
X0144860Y0129681D01*
X0149855Y0128082D02*
X0138848Y0128082D01*
X0139000Y0126484D02*
X0154851Y0126484D01*
X0159846Y0124885D02*
X0138586Y0124885D01*
X0137392Y0123287D02*
X0164841Y0123287D01*
X0156200Y0118491D02*
X0179828Y0118491D01*
X0184823Y0116893D02*
X0156200Y0116893D01*
X0156200Y0115294D02*
X0188754Y0115294D01*
X0189416Y0113696D02*
X0154918Y0113696D01*
X0148682Y0113696D02*
X0137801Y0113696D01*
X0138755Y0115294D02*
X0147400Y0115294D01*
X0147400Y0116893D02*
X0139000Y0116893D01*
X0138678Y0118491D02*
X0147400Y0118491D01*
X0148867Y0120090D02*
X0137616Y0120090D01*
X0135315Y0111400D02*
X0128285Y0111400D01*
X0126594Y0110700D01*
X0125300Y0109406D01*
X0124600Y0107715D01*
X0124600Y0105885D01*
X0125300Y0104194D01*
X0126594Y0102900D01*
X0128285Y0102200D01*
X0135315Y0102200D01*
X0137006Y0102900D01*
X0138300Y0104194D01*
X0139000Y0105885D01*
X0139000Y0107715D01*
X0138300Y0109406D01*
X0137006Y0110700D01*
X0135315Y0111400D01*
X0137207Y0110499D02*
X0148993Y0110499D01*
X0147395Y0108900D02*
X0138509Y0108900D01*
X0139000Y0107302D02*
X0146543Y0107302D01*
X0143346Y0105703D02*
X0138925Y0105703D01*
X0138210Y0104105D02*
X0140148Y0104105D01*
X0136951Y0102506D02*
X0136054Y0102506D01*
X0131800Y0096800D02*
X0151800Y0106800D01*
X0165183Y0089718D02*
X0173076Y0089718D01*
X0171844Y0092915D02*
X0179736Y0092915D01*
X0183066Y0094514D02*
X0175174Y0094514D01*
X0178504Y0096112D02*
X0186397Y0096112D01*
X0188600Y0097711D02*
X0181834Y0097711D01*
X0185165Y0099309D02*
X0189170Y0099309D01*
X0188495Y0100908D02*
X0190347Y0100908D01*
X0194300Y0096800D02*
X0131800Y0066800D01*
X0136144Y0062543D02*
X0137295Y0062543D01*
X0138247Y0064142D02*
X0140625Y0064142D01*
X0138940Y0065740D02*
X0143955Y0065740D01*
X0142724Y0068937D02*
X0150616Y0068937D01*
X0147286Y0067339D02*
X0139393Y0067339D01*
X0146054Y0070536D02*
X0153946Y0070536D01*
X0152714Y0073733D02*
X0160607Y0073733D01*
X0159375Y0076930D02*
X0167267Y0076930D01*
X0170597Y0078529D02*
X0162705Y0078529D01*
X0163937Y0075332D02*
X0156045Y0075332D01*
X0157276Y0072134D02*
X0149384Y0072134D01*
X0153566Y0064142D02*
X0189482Y0064142D01*
X0189596Y0063917D02*
X0190105Y0063217D01*
X0190717Y0062605D01*
X0191417Y0062096D01*
X0192189Y0061703D01*
X0193012Y0061435D01*
X0193867Y0061300D01*
X0194100Y0061300D01*
X0194100Y0066600D01*
X0188800Y0066600D01*
X0188800Y0066367D01*
X0188935Y0065512D01*
X0189203Y0064689D01*
X0189596Y0063917D01*
X0190802Y0062543D02*
X0150236Y0062543D01*
X0146906Y0060945D02*
X0196650Y0060945D01*
X0196650Y0059346D02*
X0143576Y0059346D01*
X0140245Y0057748D02*
X0196650Y0057748D01*
X0196650Y0056149D02*
X0139000Y0056149D01*
X0138447Y0054551D02*
X0143160Y0054551D01*
X0143019Y0052952D02*
X0137058Y0052952D01*
X0135426Y0051354D02*
X0143019Y0051354D01*
X0143019Y0049755D02*
X0137950Y0049755D01*
X0138817Y0048157D02*
X0144000Y0048157D01*
X0144000Y0046558D02*
X0139000Y0046558D01*
X0138617Y0044960D02*
X0144000Y0044960D01*
X0144000Y0043361D02*
X0137467Y0043361D01*
X0134600Y0041763D02*
X0144000Y0041763D01*
X0144000Y0040164D02*
X0134600Y0040164D01*
X0134600Y0038566D02*
X0144000Y0038566D01*
X0144000Y0036967D02*
X0134600Y0036967D01*
X0134600Y0035369D02*
X0144362Y0035369D01*
X0145870Y0033770D02*
X0134600Y0033770D01*
X0134600Y0032172D02*
X0147468Y0032172D01*
X0149067Y0030573D02*
X0134600Y0030573D01*
X0134600Y0028975D02*
X0153077Y0028975D01*
X0151800Y0031800D02*
X0146800Y0036800D01*
X0146800Y0051800D01*
X0150440Y0054551D02*
X0196650Y0054551D01*
X0194500Y0062543D02*
X0194100Y0062543D01*
X0194100Y0064142D02*
X0194500Y0064142D01*
X0194500Y0065740D02*
X0194100Y0065740D01*
X0190258Y0070536D02*
X0166887Y0070536D01*
X0163557Y0068937D02*
X0189216Y0068937D01*
X0188817Y0067339D02*
X0160227Y0067339D01*
X0156896Y0065740D02*
X0188899Y0065740D01*
X0190904Y0072134D02*
X0170217Y0072134D01*
X0173548Y0073733D02*
X0189401Y0073733D01*
X0188739Y0075332D02*
X0176878Y0075332D01*
X0180208Y0076930D02*
X0188600Y0076930D01*
X0188846Y0078529D02*
X0183538Y0078529D01*
X0186869Y0080127D02*
X0189566Y0080127D01*
X0190199Y0081726D02*
X0191297Y0081726D01*
X0194300Y0086800D02*
X0131800Y0056800D01*
X0131800Y0046800D02*
X0131800Y0026800D01*
X0133099Y0025501D01*
X0156721Y0025501D01*
X0153172Y0022581D02*
X0126400Y0022581D01*
X0126400Y0020982D02*
X0155676Y0020982D01*
X0155424Y0019384D02*
X0125889Y0019384D01*
X0124600Y0017785D02*
X0153825Y0017785D01*
X0152227Y0016187D02*
X0124577Y0016187D01*
X0123548Y0014588D02*
X0148197Y0014588D01*
X0148019Y0012990D02*
X0121949Y0012990D01*
X0120351Y0011391D02*
X0148019Y0011391D01*
X0148019Y0009793D02*
X0118752Y0009793D01*
X0116800Y0011800D02*
X0096800Y0011800D01*
X0096800Y0016800D01*
X0091800Y0021800D01*
X0086800Y0021800D01*
X0081800Y0016800D01*
X0080424Y0019384D02*
X0070965Y0019384D01*
X0070242Y0020982D02*
X0082022Y0020982D01*
X0083621Y0022581D02*
X0069520Y0022581D01*
X0068373Y0024179D02*
X0085227Y0024179D01*
X0083623Y0027400D02*
X0081800Y0027400D01*
X0081800Y0031800D01*
X0081800Y0031800D01*
X0081800Y0036200D01*
X0083623Y0036200D01*
X0086200Y0033623D01*
X0086200Y0031800D01*
X0081800Y0031800D01*
X0081800Y0031800D01*
X0081800Y0031800D01*
X0077400Y0031800D01*
X0077400Y0033623D01*
X0079977Y0036200D01*
X0081800Y0036200D01*
X0081800Y0031800D01*
X0086200Y0031800D01*
X0086200Y0029977D01*
X0083623Y0027400D01*
X0081800Y0027400D02*
X0081800Y0031800D01*
X0081800Y0031800D01*
X0077400Y0031800D01*
X0077400Y0029977D01*
X0079977Y0027400D01*
X0081800Y0027400D01*
X0081800Y0028975D02*
X0081800Y0028975D01*
X0081800Y0030573D02*
X0081800Y0030573D01*
X0081800Y0032172D02*
X0081800Y0032172D01*
X0081800Y0033770D02*
X0081800Y0033770D01*
X0081800Y0035369D02*
X0081800Y0035369D01*
X0084454Y0035369D02*
X0119000Y0035369D01*
X0119000Y0036967D02*
X0075435Y0036967D01*
X0079146Y0035369D02*
X0070107Y0035369D01*
X0066603Y0040164D02*
X0003800Y0040164D01*
X0003800Y0038566D02*
X0061275Y0038566D01*
X0063917Y0042096D02*
X0064689Y0041703D01*
X0065512Y0041435D01*
X0066367Y0041300D01*
X0066600Y0041300D01*
X0066600Y0046600D01*
X0061300Y0046600D01*
X0061300Y0046367D01*
X0061435Y0045512D01*
X0061703Y0044689D01*
X0062096Y0043917D01*
X0062605Y0043217D01*
X0063217Y0042605D01*
X0063917Y0042096D01*
X0064571Y0041763D02*
X0003800Y0041763D01*
X0003800Y0043361D02*
X0062500Y0043361D01*
X0061615Y0044960D02*
X0003800Y0044960D01*
X0003800Y0046558D02*
X0061300Y0046558D01*
X0061458Y0048157D02*
X0003800Y0048157D01*
X0003800Y0049755D02*
X0062149Y0049755D01*
X0063711Y0051354D02*
X0003800Y0051354D01*
X0003800Y0052952D02*
X0039142Y0052952D01*
X0039895Y0052200D02*
X0043705Y0052200D01*
X0046400Y0054895D01*
X0046400Y0058705D01*
X0043705Y0061400D01*
X0039895Y0061400D01*
X0037200Y0058705D01*
X0037200Y0054895D01*
X0039895Y0052200D01*
X0037544Y0054551D02*
X0003800Y0054551D01*
X0003800Y0056149D02*
X0037200Y0056149D01*
X0037200Y0057748D02*
X0003800Y0057748D01*
X0003800Y0059346D02*
X0037841Y0059346D01*
X0039440Y0060945D02*
X0003800Y0060945D01*
X0007000Y0061300D02*
X0007233Y0061300D01*
X0008088Y0061435D01*
X0008911Y0061703D01*
X0009683Y0062096D01*
X0010383Y0062605D01*
X0010995Y0063217D01*
X0011504Y0063917D01*
X0011897Y0064689D01*
X0012165Y0065512D01*
X0012300Y0066367D01*
X0012300Y0066600D01*
X0007000Y0066600D01*
X0007000Y0061300D01*
X0007000Y0062543D02*
X0006600Y0062543D01*
X0006600Y0064142D02*
X0007000Y0064142D01*
X0007000Y0065740D02*
X0006600Y0065740D01*
X0010298Y0062543D02*
X0039551Y0062543D01*
X0039895Y0062200D02*
X0043705Y0062200D01*
X0046400Y0064895D01*
X0046400Y0068705D01*
X0043705Y0071400D01*
X0039895Y0071400D01*
X0037200Y0068705D01*
X0037200Y0064895D01*
X0039895Y0062200D01*
X0037953Y0064142D02*
X0011618Y0064142D01*
X0012201Y0065740D02*
X0037200Y0065740D01*
X0037200Y0067339D02*
X0012283Y0067339D01*
X0011884Y0068937D02*
X0037432Y0068937D01*
X0039031Y0070536D02*
X0010842Y0070536D01*
X0010196Y0072134D02*
X0049870Y0072134D01*
X0053067Y0070536D02*
X0044569Y0070536D01*
X0046168Y0068937D02*
X0056264Y0068937D01*
X0059461Y0067339D02*
X0046400Y0067339D01*
X0046400Y0065740D02*
X0061100Y0065740D01*
X0061731Y0064142D02*
X0045647Y0064142D01*
X0044049Y0062543D02*
X0062996Y0062543D01*
X0062884Y0060945D02*
X0044160Y0060945D01*
X0045759Y0059346D02*
X0061685Y0059346D01*
X0061100Y0057748D02*
X0046400Y0057748D01*
X0046400Y0056149D02*
X0061100Y0056149D01*
X0061562Y0054551D02*
X0046056Y0054551D01*
X0044458Y0052952D02*
X0062587Y0052952D01*
X0069889Y0051354D02*
X0089872Y0051354D01*
X0092003Y0052952D02*
X0071013Y0052952D01*
X0072038Y0054551D02*
X0094135Y0054551D01*
X0094600Y0056149D02*
X0072500Y0056149D01*
X0072500Y0057748D02*
X0094614Y0057748D01*
X0095276Y0059346D02*
X0071915Y0059346D01*
X0070716Y0060945D02*
X0097186Y0060945D01*
X0097456Y0062543D02*
X0070604Y0062543D01*
X0071125Y0070536D02*
X0091576Y0070536D01*
X0093175Y0072134D02*
X0068816Y0072134D01*
X0064784Y0072134D02*
X0062392Y0072134D01*
X0059195Y0073733D02*
X0094773Y0073733D01*
X0094829Y0075332D02*
X0055998Y0075332D01*
X0052801Y0076930D02*
X0078662Y0076930D01*
X0077010Y0078529D02*
X0049604Y0078529D01*
X0046407Y0080127D02*
X0076323Y0080127D01*
X0076100Y0081726D02*
X0043210Y0081726D01*
X0040013Y0083324D02*
X0076262Y0083324D01*
X0076924Y0084923D02*
X0036816Y0084923D01*
X0033619Y0086521D02*
X0078460Y0086521D01*
X0077702Y0088120D02*
X0030422Y0088120D01*
X0027225Y0089718D02*
X0076693Y0089718D01*
X0085140Y0086521D02*
X0094600Y0086521D01*
X0094600Y0085885D02*
X0095300Y0084194D01*
X0096594Y0082900D01*
X0098285Y0082200D01*
X0105315Y0082200D01*
X0107006Y0082900D01*
X0108300Y0084194D01*
X0109000Y0085885D01*
X0109000Y0087715D01*
X0108300Y0089406D01*
X0107006Y0090700D01*
X0105315Y0091400D01*
X0098285Y0091400D01*
X0096594Y0090700D01*
X0095300Y0089406D01*
X0094600Y0087715D01*
X0094600Y0085885D01*
X0094999Y0084923D02*
X0086676Y0084923D01*
X0087338Y0083324D02*
X0096171Y0083324D01*
X0096022Y0080127D02*
X0087277Y0080127D01*
X0087500Y0081726D02*
X0114000Y0081726D01*
X0114000Y0083324D02*
X0107429Y0083324D01*
X0108601Y0084923D02*
X0114000Y0084923D01*
X0114000Y0086521D02*
X0109000Y0086521D01*
X0108832Y0088120D02*
X0114000Y0088120D01*
X0114000Y0089718D02*
X0107987Y0089718D01*
X0107021Y0092915D02*
X0114000Y0092915D01*
X0114000Y0091317D02*
X0105516Y0091317D01*
X0108432Y0094514D02*
X0114000Y0094514D01*
X0114000Y0096112D02*
X0109000Y0096112D01*
X0109000Y0097711D02*
X0114000Y0097711D01*
X0114000Y0099309D02*
X0108340Y0099309D01*
X0101800Y0102506D02*
X0101800Y0102506D01*
X0101800Y0102400D02*
X0101800Y0106800D01*
X0101800Y0106800D01*
X0101800Y0106800D01*
X0094800Y0106800D01*
X0094800Y0106454D01*
X0094908Y0105770D01*
X0095122Y0105111D01*
X0095437Y0104494D01*
X0095844Y0103934D01*
X0096334Y0103444D01*
X0096894Y0103037D01*
X0097511Y0102722D01*
X0098170Y0102508D01*
X0098854Y0102400D01*
X0101800Y0102400D01*
X0101800Y0104105D02*
X0101800Y0104105D01*
X0101800Y0105703D02*
X0101800Y0105703D01*
X0098183Y0102506D02*
X0090520Y0102506D01*
X0087015Y0104105D02*
X0095720Y0104105D01*
X0094930Y0105703D02*
X0085958Y0105703D01*
X0083412Y0107302D02*
X0094825Y0107302D01*
X0095332Y0108900D02*
X0070581Y0108900D01*
X0069492Y0110499D02*
X0074141Y0110499D01*
X0072543Y0112097D02*
X0010158Y0112097D01*
X0011162Y0110499D02*
X0064108Y0110499D01*
X0069346Y0115294D02*
X0045581Y0115294D01*
X0045581Y0116893D02*
X0067747Y0116893D01*
X0066149Y0118491D02*
X0045581Y0118491D01*
X0044901Y0120090D02*
X0059550Y0120090D01*
X0057952Y0121688D02*
X0009893Y0121688D01*
X0011348Y0123287D02*
X0056353Y0123287D01*
X0056800Y0126800D02*
X0061800Y0121800D01*
X0066800Y0121800D01*
X0076800Y0111800D01*
X0106800Y0111800D01*
X0116800Y0121800D01*
X0116800Y0151800D01*
X0111800Y0156800D01*
X0101800Y0156800D01*
X0098285Y0162200D02*
X0105315Y0162200D01*
X0107006Y0162900D01*
X0108300Y0164194D01*
X0109000Y0165885D01*
X0109000Y0167715D01*
X0108300Y0169406D01*
X0107006Y0170700D01*
X0105315Y0171400D01*
X0098285Y0171400D01*
X0096594Y0170700D01*
X0095495Y0169600D01*
X0091339Y0169600D01*
X0098066Y0172291D01*
X0098285Y0172200D01*
X0105315Y0172200D01*
X0107006Y0172900D01*
X0108300Y0174194D01*
X0109000Y0175885D01*
X0109000Y0177715D01*
X0108300Y0179406D01*
X0107006Y0180700D01*
X0105315Y0181400D01*
X0098285Y0181400D01*
X0096594Y0180700D01*
X0095300Y0179406D01*
X0094600Y0177715D01*
X0094600Y0176936D01*
X0080404Y0171257D01*
X0080029Y0171632D01*
X0077934Y0172500D01*
X0075666Y0172500D01*
X0073571Y0171632D01*
X0071968Y0170029D01*
X0071100Y0167934D01*
X0071100Y0165666D01*
X0071968Y0163571D01*
X0073571Y0161968D01*
X0073976Y0161800D01*
X0073571Y0161632D01*
X0071968Y0160029D01*
X0071100Y0157934D01*
X0071100Y0155666D01*
X0071968Y0153571D01*
X0073571Y0151968D01*
X0074264Y0151681D01*
X0073917Y0151504D01*
X0073217Y0150995D01*
X0072605Y0150383D01*
X0072096Y0149683D01*
X0071703Y0148911D01*
X0071435Y0148088D01*
X0071300Y0147233D01*
X0071300Y0147000D01*
X0076600Y0147000D01*
X0076600Y0146600D01*
X0071300Y0146600D01*
X0071300Y0146367D01*
X0071435Y0145512D01*
X0071703Y0144689D01*
X0072096Y0143917D01*
X0072605Y0143217D01*
X0073217Y0142605D01*
X0073917Y0142096D01*
X0074264Y0141919D01*
X0073571Y0141632D01*
X0071968Y0140029D01*
X0071400Y0138658D01*
X0071400Y0138705D01*
X0068705Y0141400D01*
X0064895Y0141400D01*
X0062200Y0138705D01*
X0062200Y0134895D01*
X0064895Y0132200D01*
X0068705Y0132200D01*
X0071400Y0134895D01*
X0071400Y0134942D01*
X0071968Y0133571D01*
X0073571Y0131968D01*
X0073976Y0131800D01*
X0073571Y0131632D01*
X0071968Y0130029D01*
X0071100Y0127934D01*
X0071100Y0125666D01*
X0071968Y0123571D01*
X0073571Y0121968D01*
X0075666Y0121100D01*
X0077934Y0121100D01*
X0080029Y0121968D01*
X0081632Y0123571D01*
X0082500Y0125666D01*
X0082500Y0126064D01*
X0098066Y0132291D01*
X0098285Y0132200D01*
X0105315Y0132200D01*
X0107006Y0132900D01*
X0108300Y0134194D01*
X0109000Y0135885D01*
X0109000Y0137715D01*
X0108300Y0139406D01*
X0107006Y0140700D01*
X0105315Y0141400D01*
X0098285Y0141400D01*
X0096594Y0140700D01*
X0095300Y0139406D01*
X0094600Y0137715D01*
X0094600Y0136936D01*
X0080404Y0131257D01*
X0080029Y0131632D01*
X0079624Y0131800D01*
X0080029Y0131968D01*
X0081632Y0133571D01*
X0082500Y0135666D01*
X0082500Y0136064D01*
X0098066Y0142291D01*
X0098285Y0142200D01*
X0105315Y0142200D01*
X0107006Y0142900D01*
X0108300Y0144194D01*
X0109000Y0145885D01*
X0109000Y0147715D01*
X0108300Y0149406D01*
X0107006Y0150700D01*
X0105315Y0151400D01*
X0098285Y0151400D01*
X0096594Y0150700D01*
X0095300Y0149406D01*
X0094600Y0147715D01*
X0094600Y0146936D01*
X0080404Y0141257D01*
X0080029Y0141632D01*
X0079336Y0141919D01*
X0079683Y0142096D01*
X0080383Y0142605D01*
X0080995Y0143217D01*
X0081504Y0143917D01*
X0081897Y0144689D01*
X0082165Y0145512D01*
X0082300Y0146367D01*
X0082300Y0146600D01*
X0077000Y0146600D01*
X0077000Y0147000D01*
X0082300Y0147000D01*
X0082300Y0147233D01*
X0082165Y0148088D01*
X0081897Y0148911D01*
X0081504Y0149683D01*
X0080995Y0150383D01*
X0080383Y0150995D01*
X0079683Y0151504D01*
X0079336Y0151681D01*
X0080029Y0151968D01*
X0081632Y0153571D01*
X0082500Y0155666D01*
X0082500Y0157934D01*
X0081632Y0160029D01*
X0080029Y0161632D01*
X0079624Y0161800D01*
X0080029Y0161968D01*
X0081632Y0163571D01*
X0082500Y0165666D01*
X0082500Y0166064D01*
X0083019Y0166272D01*
X0083019Y0164190D01*
X0084190Y0163019D01*
X0089410Y0163019D01*
X0090391Y0164000D01*
X0095495Y0164000D01*
X0096594Y0162900D01*
X0098285Y0162200D01*
X0096245Y0163250D02*
X0089640Y0163250D01*
X0086800Y0166800D02*
X0101800Y0166800D01*
X0107355Y0163250D02*
X0126601Y0163250D01*
X0126334Y0163444D02*
X0126894Y0163037D01*
X0127511Y0162722D01*
X0128170Y0162508D01*
X0128854Y0162400D01*
X0131800Y0162400D01*
X0134746Y0162400D01*
X0135430Y0162508D01*
X0136089Y0162722D01*
X0136706Y0163037D01*
X0137266Y0163444D01*
X0137756Y0163934D01*
X0138163Y0164494D01*
X0138478Y0165111D01*
X0138692Y0165770D01*
X0138800Y0166454D01*
X0138800Y0166800D01*
X0138800Y0167146D01*
X0138692Y0167830D01*
X0138478Y0168489D01*
X0138163Y0169106D01*
X0137756Y0169666D01*
X0137266Y0170156D01*
X0136706Y0170563D01*
X0136089Y0170878D01*
X0135430Y0171092D01*
X0134746Y0171200D01*
X0131800Y0171200D01*
X0131800Y0166800D01*
X0131800Y0166800D01*
X0138800Y0166800D01*
X0131800Y0166800D01*
X0131800Y0166800D01*
X0131800Y0162400D01*
X0131800Y0166800D01*
X0131800Y0166800D01*
X0131800Y0166800D01*
X0124800Y0166800D01*
X0124800Y0167146D01*
X0124908Y0167830D01*
X0125122Y0168489D01*
X0125437Y0169106D01*
X0125844Y0169666D01*
X0126334Y0170156D01*
X0126894Y0170563D01*
X0127511Y0170878D01*
X0128170Y0171092D01*
X0128854Y0171200D01*
X0131800Y0171200D01*
X0131800Y0166800D01*
X0124800Y0166800D01*
X0124800Y0166454D01*
X0124908Y0165770D01*
X0125122Y0165111D01*
X0125437Y0164494D01*
X0125844Y0163934D01*
X0126334Y0163444D01*
X0125256Y0164848D02*
X0108571Y0164848D01*
X0109000Y0166447D02*
X0124801Y0166447D01*
X0124978Y0168045D02*
X0108863Y0168045D01*
X0108062Y0169644D02*
X0125827Y0169644D01*
X0126738Y0172841D02*
X0106862Y0172841D01*
X0105696Y0171242D02*
X0196650Y0171242D01*
X0196650Y0169644D02*
X0137773Y0169644D01*
X0138622Y0168045D02*
X0196650Y0168045D01*
X0196650Y0166447D02*
X0138799Y0166447D01*
X0138344Y0164848D02*
X0148343Y0164848D01*
X0147200Y0163705D02*
X0147200Y0159895D01*
X0149895Y0157200D01*
X0153705Y0157200D01*
X0156400Y0159895D01*
X0156400Y0163705D01*
X0153705Y0166400D01*
X0149895Y0166400D01*
X0147200Y0163705D01*
X0147200Y0163250D02*
X0136999Y0163250D01*
X0137653Y0160053D02*
X0147200Y0160053D01*
X0147200Y0161651D02*
X0079983Y0161651D01*
X0081311Y0163250D02*
X0083960Y0163250D01*
X0083019Y0164848D02*
X0082161Y0164848D01*
X0081608Y0160053D02*
X0095947Y0160053D01*
X0094906Y0158454D02*
X0082284Y0158454D01*
X0082500Y0156856D02*
X0094600Y0156856D01*
X0094860Y0155257D02*
X0082331Y0155257D01*
X0081668Y0153659D02*
X0095836Y0153659D01*
X0096356Y0150462D02*
X0080917Y0150462D01*
X0080121Y0152060D02*
X0112580Y0152060D01*
X0114000Y0150462D02*
X0107244Y0150462D01*
X0108524Y0148863D02*
X0114000Y0148863D01*
X0114000Y0147265D02*
X0109000Y0147265D01*
X0108909Y0145666D02*
X0114000Y0145666D01*
X0114000Y0144068D02*
X0108173Y0144068D01*
X0105964Y0142469D02*
X0114000Y0142469D01*
X0114000Y0140870D02*
X0106593Y0140870D01*
X0108355Y0139272D02*
X0114000Y0139272D01*
X0114000Y0137673D02*
X0109000Y0137673D01*
X0109000Y0136075D02*
X0114000Y0136075D01*
X0114000Y0134476D02*
X0108417Y0134476D01*
X0106952Y0132878D02*
X0114000Y0132878D01*
X0114000Y0131279D02*
X0105606Y0131279D01*
X0105315Y0131400D02*
X0107006Y0130700D01*
X0108300Y0129406D01*
X0109000Y0127715D01*
X0109000Y0125885D01*
X0108300Y0124194D01*
X0107006Y0122900D01*
X0105315Y0122200D01*
X0098285Y0122200D01*
X0096594Y0122900D01*
X0095300Y0124194D01*
X0094600Y0125885D01*
X0094600Y0127715D01*
X0095300Y0129406D01*
X0096594Y0130700D01*
X0098285Y0131400D01*
X0105315Y0131400D01*
X0108024Y0129681D02*
X0114000Y0129681D01*
X0114000Y0128082D02*
X0108848Y0128082D01*
X0109000Y0126484D02*
X0114000Y0126484D01*
X0114000Y0124885D02*
X0108586Y0124885D01*
X0107392Y0123287D02*
X0114000Y0123287D01*
X0112729Y0121688D02*
X0079354Y0121688D01*
X0081348Y0123287D02*
X0096208Y0123287D01*
X0095014Y0124885D02*
X0082177Y0124885D01*
X0083549Y0126484D02*
X0094600Y0126484D01*
X0094752Y0128082D02*
X0087545Y0128082D01*
X0091541Y0129681D02*
X0095576Y0129681D01*
X0095538Y0131279D02*
X0097994Y0131279D01*
X0101800Y0136800D02*
X0076800Y0126800D01*
X0071423Y0124885D02*
X0062674Y0124885D01*
X0061076Y0126484D02*
X0071100Y0126484D01*
X0071162Y0128082D02*
X0059477Y0128082D01*
X0056800Y0126800D02*
X0006800Y0126800D01*
X0010382Y0131279D02*
X0073218Y0131279D01*
X0072661Y0132878D02*
X0069383Y0132878D01*
X0070982Y0134476D02*
X0071593Y0134476D01*
X0071654Y0139272D02*
X0070833Y0139272D01*
X0069235Y0140870D02*
X0072809Y0140870D01*
X0073404Y0142469D02*
X0012765Y0142469D01*
X0011966Y0140870D02*
X0024365Y0140870D01*
X0024895Y0141400D02*
X0022200Y0138705D01*
X0022200Y0134895D01*
X0024895Y0132200D01*
X0028705Y0132200D01*
X0031400Y0134895D01*
X0031400Y0138705D01*
X0028705Y0141400D01*
X0024895Y0141400D01*
X0022767Y0139272D02*
X0011946Y0139272D01*
X0012500Y0137673D02*
X0022200Y0137673D01*
X0022200Y0136075D02*
X0012500Y0136075D01*
X0012007Y0134476D02*
X0022618Y0134476D01*
X0024217Y0132878D02*
X0010939Y0132878D01*
X0011776Y0129681D02*
X0071824Y0129681D01*
X0072252Y0123287D02*
X0069273Y0123287D01*
X0070871Y0121688D02*
X0074246Y0121688D01*
X0072470Y0120090D02*
X0095984Y0120090D01*
X0094922Y0118491D02*
X0074068Y0118491D01*
X0075667Y0116893D02*
X0094600Y0116893D01*
X0094845Y0115294D02*
X0077265Y0115294D01*
X0070944Y0113696D02*
X0045086Y0113696D01*
X0041800Y0116800D02*
X0006800Y0116800D01*
X0011684Y0113696D02*
X0038514Y0113696D01*
X0038699Y0120090D02*
X0011571Y0120090D01*
X0006800Y0136800D02*
X0011800Y0146800D01*
X0051800Y0146800D01*
X0061800Y0156800D01*
X0064938Y0160053D02*
X0071992Y0160053D01*
X0071316Y0158454D02*
X0065581Y0158454D01*
X0065581Y0156856D02*
X0071100Y0156856D01*
X0071269Y0155257D02*
X0065581Y0155257D01*
X0065049Y0153659D02*
X0071932Y0153659D01*
X0073479Y0152060D02*
X0061020Y0152060D01*
X0059421Y0150462D02*
X0072683Y0150462D01*
X0071687Y0148863D02*
X0057823Y0148863D01*
X0056224Y0147265D02*
X0071305Y0147265D01*
X0071411Y0145666D02*
X0054626Y0145666D01*
X0052520Y0144068D02*
X0072019Y0144068D01*
X0076800Y0136800D02*
X0101800Y0146800D01*
X0097007Y0140870D02*
X0094515Y0140870D01*
X0095245Y0139272D02*
X0090519Y0139272D01*
X0092448Y0136075D02*
X0082527Y0136075D01*
X0082007Y0134476D02*
X0088452Y0134476D01*
X0086523Y0137673D02*
X0094600Y0137673D01*
X0091426Y0145666D02*
X0082189Y0145666D01*
X0082295Y0147265D02*
X0094600Y0147265D01*
X0095076Y0148863D02*
X0081913Y0148863D01*
X0081581Y0144068D02*
X0087430Y0144068D01*
X0083433Y0142469D02*
X0080196Y0142469D01*
X0080939Y0132878D02*
X0084456Y0132878D01*
X0080459Y0131279D02*
X0080382Y0131279D01*
X0064217Y0132878D02*
X0029383Y0132878D01*
X0030982Y0134476D02*
X0062618Y0134476D01*
X0062200Y0136075D02*
X0031400Y0136075D01*
X0031400Y0137673D02*
X0062200Y0137673D01*
X0062767Y0139272D02*
X0030833Y0139272D01*
X0029235Y0140870D02*
X0064365Y0140870D01*
X0053100Y0152060D02*
X0003800Y0152060D01*
X0003800Y0150462D02*
X0051502Y0150462D01*
X0048705Y0152200D02*
X0051400Y0154895D01*
X0051400Y0158705D01*
X0048705Y0161400D01*
X0044895Y0161400D01*
X0042200Y0158705D01*
X0042200Y0154895D01*
X0044895Y0152200D01*
X0048705Y0152200D01*
X0050164Y0153659D02*
X0054699Y0153659D01*
X0056297Y0155257D02*
X0051400Y0155257D01*
X0051400Y0156856D02*
X0057896Y0156856D01*
X0058019Y0158454D02*
X0051400Y0158454D01*
X0050053Y0160053D02*
X0058662Y0160053D01*
X0059190Y0168019D02*
X0064410Y0168019D01*
X0065581Y0169190D01*
X0065581Y0171621D01*
X0072960Y0179000D01*
X0073209Y0179000D01*
X0074190Y0178019D01*
X0079410Y0178019D01*
X0080581Y0179190D01*
X0080581Y0184410D01*
X0079410Y0185581D01*
X0074190Y0185581D01*
X0073209Y0184600D01*
X0071243Y0184600D01*
X0070214Y0184174D01*
X0069426Y0183386D01*
X0061621Y0175581D01*
X0059190Y0175581D01*
X0058019Y0174410D01*
X0058019Y0169190D01*
X0059190Y0168019D01*
X0059164Y0168045D02*
X0049551Y0168045D01*
X0048705Y0167200D02*
X0051400Y0169895D01*
X0051400Y0173705D01*
X0048705Y0176400D01*
X0044895Y0176400D01*
X0042200Y0173705D01*
X0042200Y0169895D01*
X0044895Y0167200D01*
X0048705Y0167200D01*
X0051149Y0169644D02*
X0058019Y0169644D01*
X0058019Y0171242D02*
X0051400Y0171242D01*
X0051400Y0172841D02*
X0058019Y0172841D01*
X0058049Y0174439D02*
X0050666Y0174439D01*
X0049068Y0176038D02*
X0062078Y0176038D01*
X0063676Y0177636D02*
X0003800Y0177636D01*
X0003800Y0176038D02*
X0004815Y0176038D01*
X0006800Y0176038D02*
X0006800Y0176038D01*
X0006800Y0174439D02*
X0006800Y0174439D01*
X0006800Y0172841D02*
X0006800Y0172841D01*
X0006800Y0171800D02*
X0006800Y0167400D01*
X0006800Y0171800D01*
X0006800Y0171800D01*
X0006800Y0171242D02*
X0006800Y0171242D01*
X0006800Y0169644D02*
X0006800Y0169644D01*
X0006800Y0168045D02*
X0006800Y0168045D01*
X0009268Y0168045D02*
X0044049Y0168045D01*
X0042451Y0169644D02*
X0010866Y0169644D01*
X0011200Y0171242D02*
X0042200Y0171242D01*
X0042200Y0172841D02*
X0011200Y0172841D01*
X0010383Y0174439D02*
X0042934Y0174439D01*
X0044532Y0176038D02*
X0008785Y0176038D01*
X0003800Y0179235D02*
X0065275Y0179235D01*
X0066873Y0180833D02*
X0003800Y0180833D01*
X0003800Y0182432D02*
X0019663Y0182432D01*
X0019895Y0182200D02*
X0023705Y0182200D01*
X0026400Y0184895D01*
X0026400Y0188705D01*
X0023705Y0191400D01*
X0019895Y0191400D01*
X0017200Y0188705D01*
X0017200Y0184895D01*
X0019895Y0182200D01*
X0018064Y0184030D02*
X0003800Y0184030D01*
X0003800Y0185629D02*
X0017200Y0185629D01*
X0017200Y0187227D02*
X0003800Y0187227D01*
X0003800Y0188826D02*
X0017320Y0188826D01*
X0018919Y0190424D02*
X0003800Y0190424D01*
X0003800Y0192023D02*
X0051100Y0192023D01*
X0051200Y0190424D02*
X0034681Y0190424D01*
X0033705Y0191400D02*
X0029895Y0191400D01*
X0027200Y0188705D01*
X0027200Y0184895D01*
X0029895Y0182200D01*
X0033705Y0182200D01*
X0036400Y0184895D01*
X0036400Y0188705D01*
X0033705Y0191400D01*
X0036280Y0188826D02*
X0051862Y0188826D01*
X0053312Y0187227D02*
X0036400Y0187227D01*
X0036400Y0185629D02*
X0147400Y0185629D01*
X0147400Y0184977D02*
X0147400Y0186800D01*
X0151800Y0186800D01*
X0151800Y0186800D01*
X0151800Y0191200D01*
X0153623Y0191200D01*
X0156200Y0188623D01*
X0156200Y0186800D01*
X0151800Y0186800D01*
X0151800Y0186800D01*
X0151800Y0186800D01*
X0151800Y0191200D01*
X0149977Y0191200D01*
X0147400Y0188623D01*
X0147400Y0186800D01*
X0151800Y0186800D01*
X0156200Y0186800D01*
X0156200Y0184977D01*
X0153623Y0182400D01*
X0151800Y0182400D01*
X0151800Y0186800D01*
X0151800Y0186800D01*
X0151800Y0182400D01*
X0149977Y0182400D01*
X0147400Y0184977D01*
X0148347Y0184030D02*
X0080581Y0184030D01*
X0080581Y0182432D02*
X0149946Y0182432D01*
X0149895Y0181400D02*
X0148095Y0179600D01*
X0138105Y0179600D01*
X0137006Y0180700D01*
X0135315Y0181400D01*
X0128285Y0181400D01*
X0126594Y0180700D01*
X0125300Y0179406D01*
X0124600Y0177715D01*
X0124600Y0175885D01*
X0125300Y0174194D01*
X0126594Y0172900D01*
X0128285Y0172200D01*
X0135315Y0172200D01*
X0137006Y0172900D01*
X0138105Y0174000D01*
X0148095Y0174000D01*
X0149895Y0172200D01*
X0153705Y0172200D01*
X0155505Y0174000D01*
X0173095Y0174000D01*
X0174895Y0172200D01*
X0178705Y0172200D01*
X0181400Y0174895D01*
X0181400Y0178705D01*
X0178705Y0181400D01*
X0174895Y0181400D01*
X0173095Y0179600D01*
X0155505Y0179600D01*
X0153705Y0181400D01*
X0149895Y0181400D01*
X0149328Y0180833D02*
X0136683Y0180833D01*
X0131800Y0176800D02*
X0151800Y0176800D01*
X0176800Y0176800D01*
X0174254Y0172841D02*
X0154346Y0172841D01*
X0149254Y0172841D02*
X0136862Y0172841D01*
X0131800Y0169644D02*
X0131800Y0169644D01*
X0131800Y0168045D02*
X0131800Y0168045D01*
X0131800Y0166447D02*
X0131800Y0166447D01*
X0131800Y0164848D02*
X0131800Y0164848D01*
X0131800Y0163250D02*
X0131800Y0163250D01*
X0131800Y0156800D02*
X0194300Y0136800D01*
X0190161Y0132878D02*
X0184494Y0132878D01*
X0189489Y0131279D02*
X0190718Y0131279D01*
X0194300Y0126800D02*
X0131800Y0146800D01*
X0125836Y0153659D02*
X0118901Y0153659D01*
X0117303Y0155257D02*
X0124860Y0155257D01*
X0124600Y0156856D02*
X0115704Y0156856D01*
X0114106Y0158454D02*
X0124906Y0158454D01*
X0125947Y0160053D02*
X0107653Y0160053D01*
X0107764Y0153659D02*
X0110982Y0153659D01*
X0095538Y0169644D02*
X0091448Y0169644D01*
X0095445Y0171242D02*
X0097904Y0171242D01*
X0101800Y0176800D02*
X0076800Y0166800D01*
X0071439Y0164848D02*
X0003800Y0164848D01*
X0003800Y0163250D02*
X0072289Y0163250D01*
X0073617Y0161651D02*
X0003800Y0161651D01*
X0003800Y0166447D02*
X0071100Y0166447D01*
X0071146Y0168045D02*
X0064436Y0168045D01*
X0065581Y0169644D02*
X0071808Y0169644D01*
X0073181Y0171242D02*
X0065581Y0171242D01*
X0066801Y0172841D02*
X0084363Y0172841D01*
X0088359Y0174439D02*
X0068399Y0174439D01*
X0069998Y0176038D02*
X0092355Y0176038D01*
X0094600Y0177636D02*
X0071596Y0177636D01*
X0071800Y0181800D02*
X0076800Y0181800D01*
X0080581Y0180833D02*
X0096917Y0180833D01*
X0095230Y0179235D02*
X0080581Y0179235D01*
X0078088Y0186435D02*
X0077233Y0186300D01*
X0077000Y0186300D01*
X0077000Y0191600D01*
X0082300Y0191600D01*
X0082300Y0191367D01*
X0082165Y0190512D01*
X0081897Y0189689D01*
X0081504Y0188917D01*
X0080995Y0188217D01*
X0080383Y0187605D01*
X0079683Y0187096D01*
X0078911Y0186703D01*
X0078088Y0186435D01*
X0077000Y0187227D02*
X0076600Y0187227D01*
X0076600Y0188826D02*
X0077000Y0188826D01*
X0077000Y0190424D02*
X0076600Y0190424D01*
X0073737Y0187227D02*
X0070288Y0187227D01*
X0071738Y0188826D02*
X0072162Y0188826D01*
X0070070Y0184030D02*
X0035536Y0184030D01*
X0033937Y0182432D02*
X0068472Y0182432D01*
X0071800Y0181800D02*
X0061800Y0171800D01*
X0060288Y0187227D02*
X0063312Y0187227D01*
X0061862Y0188826D02*
X0061738Y0188826D01*
X0051385Y0193621D02*
X0003800Y0193621D01*
X0003800Y0195220D02*
X0052159Y0195220D01*
X0028919Y0190424D02*
X0024681Y0190424D01*
X0026280Y0188826D02*
X0027320Y0188826D01*
X0027200Y0187227D02*
X0026400Y0187227D01*
X0026400Y0185629D02*
X0027200Y0185629D01*
X0028064Y0184030D02*
X0025536Y0184030D01*
X0023937Y0182432D02*
X0029663Y0182432D01*
X0043547Y0160053D02*
X0010053Y0160053D01*
X0011400Y0158454D02*
X0042200Y0158454D01*
X0042200Y0156856D02*
X0011400Y0156856D01*
X0011400Y0155257D02*
X0042200Y0155257D01*
X0043436Y0153659D02*
X0010164Y0153659D01*
X0009903Y0148863D02*
X0003800Y0148863D01*
X0003800Y0147265D02*
X0008902Y0147265D01*
X0008103Y0145666D02*
X0003800Y0145666D01*
X0003800Y0144068D02*
X0007303Y0144068D01*
X0005591Y0142469D02*
X0003800Y0142469D01*
X0003800Y0168045D02*
X0004332Y0168045D01*
X0079863Y0187227D02*
X0147400Y0187227D01*
X0147603Y0188826D02*
X0081438Y0188826D01*
X0082136Y0190424D02*
X0149202Y0190424D01*
X0151800Y0190424D02*
X0151800Y0190424D01*
X0151800Y0188826D02*
X0151800Y0188826D01*
X0151800Y0187227D02*
X0151800Y0187227D01*
X0151800Y0185629D02*
X0151800Y0185629D01*
X0151800Y0184030D02*
X0151800Y0184030D01*
X0151800Y0182432D02*
X0151800Y0182432D01*
X0153654Y0182432D02*
X0174946Y0182432D01*
X0174977Y0182400D02*
X0172400Y0184977D01*
X0172400Y0186800D01*
X0176800Y0186800D01*
X0176800Y0186800D01*
X0176800Y0191200D01*
X0178623Y0191200D01*
X0181200Y0188623D01*
X0181200Y0186800D01*
X0176800Y0186800D01*
X0176800Y0186800D01*
X0176800Y0186800D01*
X0176800Y0191200D01*
X0174977Y0191200D01*
X0172400Y0188623D01*
X0172400Y0186800D01*
X0176800Y0186800D01*
X0181200Y0186800D01*
X0181200Y0184977D01*
X0178623Y0182400D01*
X0176800Y0182400D01*
X0176800Y0186800D01*
X0176800Y0186800D01*
X0176800Y0182400D01*
X0174977Y0182400D01*
X0174328Y0180833D02*
X0154272Y0180833D01*
X0155253Y0184030D02*
X0173347Y0184030D01*
X0172400Y0185629D02*
X0156200Y0185629D01*
X0156200Y0187227D02*
X0172400Y0187227D01*
X0172603Y0188826D02*
X0155997Y0188826D01*
X0154398Y0190424D02*
X0174202Y0190424D01*
X0176800Y0190424D02*
X0176800Y0190424D01*
X0176800Y0188826D02*
X0176800Y0188826D01*
X0176800Y0187227D02*
X0176800Y0187227D01*
X0176800Y0185629D02*
X0176800Y0185629D01*
X0176800Y0184030D02*
X0176800Y0184030D01*
X0176800Y0182432D02*
X0176800Y0182432D01*
X0178654Y0182432D02*
X0196650Y0182432D01*
X0196650Y0184030D02*
X0180253Y0184030D01*
X0181200Y0185629D02*
X0196650Y0185629D01*
X0196650Y0187227D02*
X0181200Y0187227D01*
X0180997Y0188826D02*
X0196650Y0188826D01*
X0196650Y0190424D02*
X0179398Y0190424D01*
X0179272Y0180833D02*
X0196650Y0180833D01*
X0196650Y0179235D02*
X0180871Y0179235D01*
X0181400Y0177636D02*
X0196650Y0177636D01*
X0196650Y0176038D02*
X0181400Y0176038D01*
X0180945Y0174439D02*
X0196650Y0174439D01*
X0196650Y0172841D02*
X0179346Y0172841D01*
X0178705Y0161400D02*
X0174895Y0161400D01*
X0172200Y0158705D01*
X0172200Y0154895D01*
X0174895Y0152200D01*
X0178705Y0152200D01*
X0181400Y0154895D01*
X0181400Y0158705D01*
X0178705Y0161400D01*
X0180053Y0160053D02*
X0183830Y0160053D01*
X0184977Y0161200D02*
X0182400Y0158623D01*
X0182400Y0156800D01*
X0186800Y0156800D01*
X0191200Y0156800D01*
X0191200Y0158623D01*
X0188623Y0161200D01*
X0186800Y0161200D01*
X0186800Y0156800D01*
X0186800Y0156800D01*
X0186800Y0156800D01*
X0191200Y0156800D01*
X0191200Y0154977D01*
X0188623Y0152400D01*
X0186800Y0152400D01*
X0186800Y0156800D01*
X0186800Y0156800D01*
X0186800Y0156800D01*
X0186800Y0161200D01*
X0184977Y0161200D01*
X0186800Y0160053D02*
X0186800Y0160053D01*
X0186800Y0158454D02*
X0186800Y0158454D01*
X0186800Y0156856D02*
X0186800Y0156856D01*
X0186800Y0156800D02*
X0182400Y0156800D01*
X0182400Y0154977D01*
X0184977Y0152400D01*
X0186800Y0152400D01*
X0186800Y0156800D01*
X0186800Y0155257D02*
X0186800Y0155257D01*
X0186800Y0153659D02*
X0186800Y0153659D01*
X0183719Y0153659D02*
X0180164Y0153659D01*
X0181400Y0155257D02*
X0182400Y0155257D01*
X0182400Y0156856D02*
X0181400Y0156856D01*
X0181400Y0158454D02*
X0182400Y0158454D01*
X0189770Y0160053D02*
X0196650Y0160053D01*
X0196650Y0161651D02*
X0166200Y0161651D01*
X0166200Y0161800D02*
X0161800Y0161800D01*
X0166200Y0161800D01*
X0166200Y0163623D01*
X0163623Y0166200D01*
X0161800Y0166200D01*
X0161800Y0161800D01*
X0161800Y0161800D01*
X0161800Y0161800D01*
X0161800Y0157400D01*
X0163623Y0157400D01*
X0166200Y0159977D01*
X0166200Y0161800D01*
X0166200Y0163250D02*
X0196650Y0163250D01*
X0196650Y0164848D02*
X0164974Y0164848D01*
X0161800Y0164848D02*
X0161800Y0164848D01*
X0161800Y0166200D02*
X0159977Y0166200D01*
X0157400Y0163623D01*
X0157400Y0161800D01*
X0161800Y0161800D01*
X0161800Y0161800D01*
X0161800Y0161800D01*
X0161800Y0166200D01*
X0161800Y0163250D02*
X0161800Y0163250D01*
X0161800Y0161800D02*
X0157400Y0161800D01*
X0157400Y0159977D01*
X0159977Y0157400D01*
X0161800Y0157400D01*
X0161800Y0161800D01*
X0161800Y0161651D02*
X0161800Y0161651D01*
X0161800Y0160053D02*
X0161800Y0160053D01*
X0161800Y0158454D02*
X0161800Y0158454D01*
X0164677Y0158454D02*
X0172200Y0158454D01*
X0172200Y0156856D02*
X0140813Y0156856D01*
X0138694Y0158454D02*
X0148641Y0158454D01*
X0145809Y0155257D02*
X0172200Y0155257D01*
X0173436Y0153659D02*
X0150804Y0153659D01*
X0155799Y0152060D02*
X0196650Y0152060D01*
X0196650Y0150462D02*
X0160795Y0150462D01*
X0165790Y0148863D02*
X0196650Y0148863D01*
X0196650Y0147265D02*
X0170785Y0147265D01*
X0175781Y0145666D02*
X0196650Y0145666D01*
X0196650Y0144068D02*
X0180776Y0144068D01*
X0185771Y0142469D02*
X0193091Y0142469D01*
X0195509Y0142469D02*
X0196650Y0142469D01*
X0196650Y0153659D02*
X0189881Y0153659D01*
X0191200Y0155257D02*
X0196650Y0155257D01*
X0196650Y0156856D02*
X0191200Y0156856D01*
X0191200Y0158454D02*
X0196650Y0158454D01*
X0173547Y0160053D02*
X0166200Y0160053D01*
X0158923Y0158454D02*
X0154959Y0158454D01*
X0156400Y0160053D02*
X0157400Y0160053D01*
X0157400Y0161651D02*
X0156400Y0161651D01*
X0156400Y0163250D02*
X0157400Y0163250D01*
X0158626Y0164848D02*
X0155257Y0164848D01*
X0131800Y0136800D02*
X0194300Y0116800D01*
X0190942Y0112097D02*
X0126057Y0112097D01*
X0126393Y0110499D02*
X0124459Y0110499D01*
X0125091Y0108900D02*
X0122860Y0108900D01*
X0121262Y0107302D02*
X0124600Y0107302D01*
X0124675Y0105703D02*
X0119663Y0105703D01*
X0119600Y0104105D02*
X0125390Y0104105D01*
X0127546Y0102506D02*
X0119600Y0102506D01*
X0119600Y0100908D02*
X0127097Y0100908D01*
X0125260Y0099309D02*
X0119600Y0099309D01*
X0119600Y0097711D02*
X0124600Y0097711D01*
X0124600Y0096112D02*
X0119600Y0096112D01*
X0119600Y0094514D02*
X0125168Y0094514D01*
X0126022Y0080127D02*
X0119600Y0080127D01*
X0119600Y0078529D02*
X0124937Y0078529D01*
X0124600Y0076930D02*
X0119600Y0076930D01*
X0119600Y0075332D02*
X0124829Y0075332D01*
X0125762Y0073733D02*
X0119600Y0073733D01*
X0114000Y0073733D02*
X0107838Y0073733D01*
X0108771Y0075332D02*
X0114000Y0075332D01*
X0114000Y0076930D02*
X0109000Y0076930D01*
X0108663Y0078529D02*
X0114000Y0078529D01*
X0114000Y0080127D02*
X0107578Y0080127D01*
X0098084Y0091317D02*
X0087292Y0091317D01*
X0087192Y0092915D02*
X0096579Y0092915D01*
X0095168Y0094514D02*
X0086590Y0094514D01*
X0085222Y0096112D02*
X0093007Y0096112D01*
X0096914Y0100908D02*
X0097097Y0100908D01*
X0086613Y0097711D02*
X0085772Y0097711D01*
X0086907Y0089718D02*
X0095613Y0089718D01*
X0094768Y0088120D02*
X0085898Y0088120D01*
X0086590Y0078529D02*
X0094937Y0078529D01*
X0094600Y0076930D02*
X0084938Y0076930D01*
X0092700Y0064142D02*
X0095353Y0064142D01*
X0107058Y0052952D02*
X0114000Y0052952D01*
X0114000Y0051354D02*
X0105426Y0051354D01*
X0107950Y0049755D02*
X0113365Y0049755D01*
X0113019Y0048157D02*
X0108817Y0048157D01*
X0109000Y0046558D02*
X0113019Y0046558D01*
X0113019Y0044960D02*
X0108617Y0044960D01*
X0107467Y0043361D02*
X0113848Y0043361D01*
X0119606Y0038566D02*
X0085071Y0038566D01*
X0086400Y0040164D02*
X0121204Y0040164D01*
X0122803Y0041763D02*
X0086417Y0041763D01*
X0088548Y0043361D02*
X0096133Y0043361D01*
X0094983Y0044960D02*
X0090680Y0044960D01*
X0092811Y0046558D02*
X0094600Y0046558D01*
X0087740Y0049755D02*
X0071451Y0049755D01*
X0072142Y0048157D02*
X0085609Y0048157D01*
X0083478Y0046558D02*
X0072300Y0046558D01*
X0072300Y0046600D02*
X0067000Y0046600D01*
X0067000Y0041300D01*
X0067233Y0041300D01*
X0068088Y0041435D01*
X0068911Y0041703D01*
X0069683Y0042096D01*
X0070383Y0042605D01*
X0070995Y0043217D01*
X0071504Y0043917D01*
X0071897Y0044689D01*
X0072165Y0045512D01*
X0072300Y0046367D01*
X0072300Y0046600D01*
X0071985Y0044960D02*
X0078454Y0044960D01*
X0077200Y0043361D02*
X0071100Y0043361D01*
X0071932Y0041763D02*
X0069029Y0041763D01*
X0067000Y0041763D02*
X0066600Y0041763D01*
X0066600Y0043361D02*
X0067000Y0043361D01*
X0067000Y0044960D02*
X0066600Y0044960D01*
X0066600Y0046558D02*
X0067000Y0046558D01*
X0055947Y0036967D02*
X0003800Y0036967D01*
X0003800Y0035369D02*
X0050618Y0035369D01*
X0045290Y0033770D02*
X0003800Y0033770D01*
X0003800Y0032172D02*
X0039962Y0032172D01*
X0034633Y0030573D02*
X0034532Y0030573D01*
X0038136Y0025778D02*
X0109555Y0025778D01*
X0109977Y0026200D02*
X0107400Y0023623D01*
X0107400Y0021800D01*
X0111800Y0021800D01*
X0116200Y0021800D01*
X0116200Y0023623D01*
X0113623Y0026200D01*
X0111800Y0026200D01*
X0111800Y0021800D01*
X0111800Y0021800D01*
X0111800Y0021800D01*
X0116200Y0021800D01*
X0116200Y0019977D01*
X0113623Y0017400D01*
X0111800Y0017400D01*
X0111800Y0021800D01*
X0111800Y0021800D01*
X0111800Y0021800D01*
X0111800Y0026200D01*
X0109977Y0026200D01*
X0111800Y0025778D02*
X0111800Y0025778D01*
X0111800Y0024179D02*
X0111800Y0024179D01*
X0111800Y0022581D02*
X0111800Y0022581D01*
X0111800Y0021800D02*
X0107400Y0021800D01*
X0107400Y0019977D01*
X0109977Y0017400D01*
X0111800Y0017400D01*
X0111800Y0021800D01*
X0111800Y0020982D02*
X0111800Y0020982D01*
X0111800Y0019384D02*
X0111800Y0019384D01*
X0111800Y0017785D02*
X0111800Y0017785D01*
X0114008Y0017785D02*
X0118825Y0017785D01*
X0117711Y0019384D02*
X0115606Y0019384D01*
X0116200Y0020982D02*
X0117200Y0020982D01*
X0117200Y0022581D02*
X0116200Y0022581D01*
X0115643Y0024179D02*
X0117674Y0024179D01*
X0119000Y0025778D02*
X0114045Y0025778D01*
X0119000Y0027376D02*
X0043465Y0027376D01*
X0048793Y0028975D02*
X0078403Y0028975D01*
X0077400Y0030573D02*
X0054122Y0030573D01*
X0059450Y0032172D02*
X0077400Y0032172D01*
X0077548Y0033770D02*
X0064778Y0033770D01*
X0065542Y0017785D02*
X0036200Y0017785D01*
X0036200Y0016800D02*
X0031800Y0016800D01*
X0031800Y0016800D01*
X0031800Y0016800D01*
X0031800Y0012400D01*
X0033623Y0012400D01*
X0036200Y0014977D01*
X0036200Y0016800D01*
X0036200Y0016187D02*
X0066264Y0016187D01*
X0066004Y0014588D02*
X0066987Y0014588D01*
X0067688Y0012990D02*
X0067709Y0012990D01*
X0063926Y0012990D02*
X0063926Y0012990D01*
X0063926Y0014588D02*
X0063926Y0014588D01*
X0063926Y0015112D02*
X0063582Y0015112D01*
X0062902Y0015004D01*
X0062247Y0014791D01*
X0061633Y0014479D01*
X0061076Y0014074D01*
X0060589Y0013587D01*
X0060184Y0013030D01*
X0059872Y0012416D01*
X0059775Y0012119D01*
X0059416Y0012985D01*
X0058300Y0014101D01*
X0056841Y0014705D01*
X0055263Y0014705D01*
X0053804Y0014101D01*
X0052688Y0012985D01*
X0052083Y0011526D01*
X0052083Y0009948D01*
X0052688Y0008489D01*
X0053804Y0007373D01*
X0055263Y0006769D01*
X0056841Y0006769D01*
X0058300Y0007373D01*
X0059416Y0008489D01*
X0059775Y0009355D01*
X0059872Y0009058D01*
X0060184Y0008444D01*
X0060589Y0007887D01*
X0061076Y0007400D01*
X0061633Y0006995D01*
X0062247Y0006683D01*
X0062902Y0006470D01*
X0063582Y0006362D01*
X0063926Y0006362D01*
X0063926Y0010737D01*
X0063926Y0010737D01*
X0063926Y0010737D01*
X0063926Y0015112D01*
X0061848Y0014588D02*
X0057125Y0014588D01*
X0054979Y0014588D02*
X0035811Y0014588D01*
X0034212Y0012990D02*
X0052692Y0012990D01*
X0052083Y0011391D02*
X0003800Y0011391D01*
X0003800Y0009793D02*
X0052148Y0009793D01*
X0052983Y0008194D02*
X0003800Y0008194D01*
X0003800Y0006596D02*
X0062515Y0006596D01*
X0063926Y0006596D02*
X0063926Y0006596D01*
X0065337Y0006596D02*
X0069844Y0006596D01*
X0067902Y0008194D02*
X0067486Y0008194D01*
X0063926Y0008194D02*
X0063926Y0008194D01*
X0063926Y0009793D02*
X0063926Y0009793D01*
X0063926Y0011391D02*
X0063926Y0011391D01*
X0060164Y0012990D02*
X0059412Y0012990D01*
X0059121Y0008194D02*
X0060366Y0008194D01*
X0072410Y0016187D02*
X0077970Y0016187D01*
X0078750Y0017785D02*
X0071687Y0017785D01*
X0074419Y0014588D02*
X0077055Y0014588D01*
X0084600Y0014588D02*
X0086475Y0014588D01*
X0085146Y0016187D02*
X0093454Y0016187D01*
X0094000Y0014588D02*
X0088621Y0014588D01*
X0090908Y0012990D02*
X0094000Y0012990D01*
X0094000Y0011391D02*
X0091517Y0011391D01*
X0091452Y0009793D02*
X0094848Y0009793D01*
X0090617Y0008194D02*
X0149015Y0008194D01*
X0151800Y0011800D02*
X0161446Y0021446D01*
X0161446Y0028650D01*
X0156721Y0031800D02*
X0151800Y0031800D01*
X0130461Y0024179D02*
X0125926Y0024179D01*
X0124600Y0025778D02*
X0129193Y0025778D01*
X0129000Y0027376D02*
X0124600Y0027376D01*
X0124600Y0028975D02*
X0129000Y0028975D01*
X0129000Y0030573D02*
X0124600Y0030573D01*
X0124600Y0032172D02*
X0129000Y0032172D01*
X0129000Y0033770D02*
X0124600Y0033770D01*
X0124600Y0035369D02*
X0129000Y0035369D01*
X0129000Y0036967D02*
X0125927Y0036967D01*
X0127526Y0038566D02*
X0129000Y0038566D01*
X0121800Y0036800D02*
X0131800Y0046800D01*
X0121800Y0036800D02*
X0121800Y0021800D01*
X0121800Y0016800D01*
X0116800Y0011800D01*
X0117227Y0016187D02*
X0099600Y0016187D01*
X0099423Y0017785D02*
X0109592Y0017785D01*
X0107994Y0019384D02*
X0098176Y0019384D01*
X0096578Y0020982D02*
X0107400Y0020982D01*
X0107400Y0022581D02*
X0094979Y0022581D01*
X0093373Y0024179D02*
X0107957Y0024179D01*
X0119000Y0028975D02*
X0085197Y0028975D01*
X0086200Y0030573D02*
X0119000Y0030573D01*
X0119000Y0032172D02*
X0086200Y0032172D01*
X0086052Y0033770D02*
X0119000Y0033770D01*
X0114000Y0054551D02*
X0108447Y0054551D01*
X0109000Y0056149D02*
X0114000Y0056149D01*
X0114000Y0057748D02*
X0108986Y0057748D01*
X0108324Y0059346D02*
X0114000Y0059346D01*
X0131800Y0076800D02*
X0194300Y0106800D01*
X0191207Y0121688D02*
X0188211Y0121688D01*
X0189752Y0123287D02*
X0183216Y0123287D01*
X0189347Y0091317D02*
X0190756Y0091317D01*
X0189339Y0089718D02*
X0186017Y0089718D01*
X0188677Y0088120D02*
X0182686Y0088120D01*
X0179356Y0086521D02*
X0187248Y0086521D01*
X0183918Y0084923D02*
X0176026Y0084923D01*
X0177258Y0081726D02*
X0169365Y0081726D01*
X0172696Y0083324D02*
X0180588Y0083324D01*
X0173928Y0080127D02*
X0166035Y0080127D01*
X0169745Y0088120D02*
X0161853Y0088120D01*
X0168513Y0091317D02*
X0176406Y0091317D01*
X0111130Y0120090D02*
X0107616Y0120090D01*
X0108678Y0118491D02*
X0109532Y0118491D01*
X0108401Y0174439D02*
X0125199Y0174439D01*
X0124600Y0176038D02*
X0109000Y0176038D01*
X0109000Y0177636D02*
X0124600Y0177636D01*
X0125230Y0179235D02*
X0108370Y0179235D01*
X0106683Y0180833D02*
X0126917Y0180833D01*
X0082300Y0192023D02*
X0196650Y0192023D01*
X0196650Y0193621D02*
X0081991Y0193621D01*
X0081114Y0195220D02*
X0196650Y0195220D01*
X0046673Y0073733D02*
X0011699Y0073733D01*
X0012361Y0075332D02*
X0043476Y0075332D01*
X0040279Y0076930D02*
X0012500Y0076930D01*
X0012254Y0078529D02*
X0037082Y0078529D01*
X0033885Y0080127D02*
X0011534Y0080127D01*
X0009803Y0081726D02*
X0030688Y0081726D01*
X0027491Y0083324D02*
X0011385Y0083324D01*
X0012192Y0084923D02*
X0024294Y0084923D01*
X0021097Y0086521D02*
X0012500Y0086521D01*
X0012423Y0088120D02*
X0017900Y0088120D01*
X0014703Y0089718D02*
X0011761Y0089718D01*
X0011506Y0091317D02*
X0010344Y0091317D01*
X0003800Y0020982D02*
X0019700Y0020982D01*
X0020211Y0019384D02*
X0003800Y0019384D01*
X0003800Y0017785D02*
X0021809Y0017785D01*
X0026790Y0017785D02*
X0027400Y0017785D01*
X0027400Y0016800D02*
X0027400Y0014977D01*
X0029977Y0012400D01*
X0031800Y0012400D01*
X0031800Y0016800D01*
X0031800Y0016800D01*
X0027400Y0016800D01*
X0027400Y0016187D02*
X0003800Y0016187D01*
X0003800Y0014588D02*
X0027789Y0014588D01*
X0029388Y0012990D02*
X0003800Y0012990D01*
X0003800Y0004997D02*
X0196650Y0004997D01*
X0196650Y0012990D02*
X0183122Y0012990D01*
X0183860Y0014588D02*
X0196650Y0014588D01*
X0196650Y0016187D02*
X0184410Y0016187D01*
X0184410Y0017785D02*
X0196650Y0017785D01*
X0196650Y0019384D02*
X0184228Y0019384D01*
X0183566Y0020982D02*
X0196650Y0020982D01*
X0196650Y0022581D02*
X0182412Y0022581D01*
X0180392Y0024179D02*
X0196650Y0024179D01*
X0091855Y0017785D02*
X0086745Y0017785D01*
X0077718Y0006596D02*
X0073756Y0006596D01*
X0031800Y0012990D02*
X0031800Y0012990D01*
X0031800Y0014588D02*
X0031800Y0014588D01*
X0031800Y0016187D02*
X0031800Y0016187D01*
D17*
X0116800Y0046800D03*
X0146800Y0051800D03*
X0151800Y0011800D03*
X0066800Y0106800D03*
X0041800Y0116800D03*
X0061800Y0156800D03*
X0061800Y0171800D03*
X0076800Y0181800D03*
X0086800Y0166800D03*
M02*
