G75*
%MOIN*%
%OFA0B0*%
%FSLAX25Y25*%
%IPPOS*%
%LPD*%
%AMOC8*
5,1,8,0,0,1.08239X$1,22.5*
%
%ADD10C,0.00000*%
%ADD11C,0.07400*%
%ADD12OC8,0.05200*%
%ADD13C,0.05200*%
%ADD14C,0.05150*%
%ADD15C,0.11220*%
%ADD16C,0.05150*%
%ADD17C,0.05937*%
%ADD18C,0.01600*%
%ADD19R,0.03562X0.03562*%
D10*
X0001800Y0001800D02*
X0001800Y0198650D01*
X0198650Y0198650D01*
X0198650Y0001800D01*
X0001800Y0001800D01*
D11*
X0006800Y0066800D03*
X0006800Y0076800D03*
X0006800Y0086800D03*
X0006800Y0096800D03*
X0006800Y0106800D03*
X0006800Y0116800D03*
X0006800Y0126800D03*
X0006800Y0136800D03*
X0056800Y0191800D03*
X0066800Y0191800D03*
X0076800Y0191800D03*
X0076800Y0166800D03*
X0076800Y0156800D03*
X0076800Y0146800D03*
X0076800Y0136800D03*
X0076800Y0126800D03*
X0081800Y0101800D03*
X0081800Y0091800D03*
X0081800Y0081800D03*
X0066800Y0066800D03*
X0066800Y0056800D03*
X0066800Y0046800D03*
X0194300Y0066800D03*
X0194300Y0076800D03*
X0194300Y0086800D03*
X0194300Y0096800D03*
X0194300Y0106800D03*
X0194300Y0116800D03*
X0194300Y0126800D03*
X0194300Y0136800D03*
D12*
X0186800Y0156800D03*
X0176800Y0156800D03*
X0161800Y0161800D03*
X0151800Y0161800D03*
X0151800Y0176800D03*
X0151800Y0186800D03*
X0176800Y0186800D03*
X0176800Y0176800D03*
X0151800Y0116800D03*
X0151800Y0106800D03*
X0081800Y0041800D03*
X0081800Y0031800D03*
X0111800Y0021800D03*
X0121800Y0021800D03*
X0066800Y0096800D03*
X0041800Y0066800D03*
X0041800Y0056800D03*
X0016800Y0051800D03*
X0009300Y0046800D03*
X0016800Y0041800D03*
X0026800Y0096800D03*
X0026800Y0136800D03*
X0006800Y0156800D03*
X0006800Y0171800D03*
X0021800Y0186800D03*
X0031800Y0186800D03*
X0046800Y0171800D03*
X0046800Y0156800D03*
X0066800Y0136800D03*
D13*
X0099200Y0136800D02*
X0104400Y0136800D01*
X0104400Y0126800D02*
X0099200Y0126800D01*
X0099200Y0116800D02*
X0104400Y0116800D01*
X0104400Y0106800D02*
X0099200Y0106800D01*
X0099200Y0096800D02*
X0104400Y0096800D01*
X0104400Y0086800D02*
X0099200Y0086800D01*
X0099200Y0076800D02*
X0104400Y0076800D01*
X0104400Y0066800D02*
X0099200Y0066800D01*
X0099200Y0056800D02*
X0104400Y0056800D01*
X0104400Y0046800D02*
X0099200Y0046800D01*
X0129200Y0046800D02*
X0134400Y0046800D01*
X0134400Y0056800D02*
X0129200Y0056800D01*
X0129200Y0066800D02*
X0134400Y0066800D01*
X0134400Y0076800D02*
X0129200Y0076800D01*
X0129200Y0086800D02*
X0134400Y0086800D01*
X0134400Y0096800D02*
X0129200Y0096800D01*
X0129200Y0106800D02*
X0134400Y0106800D01*
X0134400Y0116800D02*
X0129200Y0116800D01*
X0129200Y0126800D02*
X0134400Y0126800D01*
X0134400Y0136800D02*
X0129200Y0136800D01*
X0129200Y0146800D02*
X0134400Y0146800D01*
X0134400Y0156800D02*
X0129200Y0156800D01*
X0129200Y0166800D02*
X0134400Y0166800D01*
X0134400Y0176800D02*
X0129200Y0176800D01*
X0104400Y0176800D02*
X0099200Y0176800D01*
X0099200Y0166800D02*
X0104400Y0166800D01*
X0104400Y0156800D02*
X0099200Y0156800D01*
X0099200Y0146800D02*
X0104400Y0146800D01*
D14*
X0156721Y0038099D03*
X0161446Y0034950D03*
X0156721Y0031800D03*
X0161446Y0028650D03*
X0156721Y0025501D03*
D15*
X0176800Y0017430D03*
X0176800Y0046170D03*
D16*
X0059674Y0019375D02*
X0059674Y0014225D01*
X0051800Y0014225D02*
X0051800Y0019375D01*
X0043926Y0019375D02*
X0043926Y0014225D01*
D17*
X0036052Y0013831D02*
X0036052Y0019769D01*
X0067548Y0019769D02*
X0067548Y0013831D01*
D18*
X0051800Y0016800D02*
X0076800Y0041800D01*
X0081800Y0041800D01*
X0101800Y0046800D02*
X0101800Y0011800D01*
X0106800Y0006800D01*
X0166800Y0006800D01*
X0166800Y0031800D01*
X0163650Y0034950D01*
X0161446Y0034950D01*
X0146800Y0051800D02*
X0146800Y0096800D01*
X0136800Y0106800D01*
X0131800Y0106800D01*
X0121800Y0116800D02*
X0131800Y0126800D01*
X0146800Y0126800D01*
X0151800Y0131800D01*
X0151800Y0161800D01*
X0151800Y0176800D01*
X0131800Y0176800D02*
X0116800Y0176800D01*
X0106800Y0186800D01*
X0096800Y0186800D01*
X0091800Y0181800D01*
X0091800Y0161800D01*
X0086800Y0156800D01*
X0076800Y0156800D01*
X0066800Y0146800D01*
X0031800Y0146800D01*
X0026800Y0136800D01*
X0006800Y0156800D01*
X0021800Y0186800D01*
X0031800Y0186800D02*
X0046800Y0171800D01*
X0046800Y0156800D02*
X0056800Y0191800D01*
X0076800Y0166800D01*
X0086800Y0166800D02*
X0086800Y0171800D01*
X0076800Y0181800D01*
X0061800Y0171800D02*
X0061800Y0156800D01*
X0066800Y0136800D02*
X0051800Y0126800D01*
X0041800Y0126800D01*
X0011800Y0096800D01*
X0006800Y0096800D01*
X0006981Y0096738D01*
X0007160Y0096671D01*
X0007337Y0096599D01*
X0007512Y0096524D01*
X0007686Y0096444D01*
X0007858Y0096360D01*
X0008027Y0096272D01*
X0008195Y0096180D01*
X0008360Y0096084D01*
X0008522Y0095984D01*
X0008683Y0095880D01*
X0008840Y0095772D01*
X0008995Y0095661D01*
X0009148Y0095545D01*
X0009297Y0095426D01*
X0009444Y0095304D01*
X0009587Y0095178D01*
X0009728Y0095048D01*
X0009865Y0094915D01*
X0009999Y0094779D01*
X0010130Y0094640D01*
X0010257Y0094498D01*
X0010381Y0094352D01*
X0010502Y0094204D01*
X0010618Y0094052D01*
X0010731Y0093898D01*
X0010840Y0093742D01*
X0010946Y0093582D01*
X0011047Y0093420D01*
X0011145Y0093256D01*
X0011239Y0093090D01*
X0011328Y0092921D01*
X0011414Y0092750D01*
X0011495Y0092577D01*
X0011572Y0092402D01*
X0011645Y0092226D01*
X0011713Y0092047D01*
X0011778Y0091867D01*
X0011837Y0091686D01*
X0011893Y0091503D01*
X0011944Y0091319D01*
X0011990Y0091134D01*
X0012032Y0090947D01*
X0012070Y0090760D01*
X0012103Y0090572D01*
X0012131Y0090383D01*
X0012155Y0090193D01*
X0012175Y0090003D01*
X0012189Y0089813D01*
X0012199Y0089622D01*
X0012205Y0089431D01*
X0012206Y0089240D01*
X0012202Y0089049D01*
X0012194Y0088858D01*
X0012181Y0088667D01*
X0012163Y0088477D01*
X0012141Y0088287D01*
X0012114Y0088098D01*
X0012083Y0087910D01*
X0012047Y0087722D01*
X0012007Y0087535D01*
X0011962Y0087350D01*
X0011912Y0087165D01*
X0011859Y0086982D01*
X0011800Y0086800D01*
X0006800Y0086800D02*
X0041800Y0056800D01*
X0061800Y0076800D01*
X0071800Y0076800D01*
X0076800Y0071800D01*
X0096800Y0071800D01*
X0101800Y0066800D01*
X0101800Y0056800D02*
X0111800Y0056800D01*
X0121800Y0066800D01*
X0121800Y0116800D01*
X0101800Y0116800D02*
X0096800Y0111800D01*
X0071800Y0111800D01*
X0066800Y0106800D01*
X0066800Y0096800D02*
X0041800Y0066800D01*
X0081800Y0081800D02*
X0101800Y0086800D01*
X0101800Y0106800D02*
X0081800Y0091800D01*
X0091800Y0116800D02*
X0101800Y0126800D01*
X0091800Y0116800D02*
X0041800Y0116800D01*
X0116800Y0046800D02*
X0116800Y0041800D01*
X0146800Y0011800D01*
X0151800Y0011800D01*
X0136800Y0031800D02*
X0171800Y0066800D01*
X0184300Y0066800D01*
X0194300Y0076800D01*
X0176800Y0156800D02*
X0176800Y0176800D01*
D19*
X0086800Y0166800D03*
X0076800Y0181800D03*
X0061800Y0171800D03*
X0061800Y0156800D03*
X0041800Y0116800D03*
X0066800Y0106800D03*
X0116800Y0046800D03*
X0136800Y0031800D03*
X0146800Y0051800D03*
X0151800Y0011800D03*
M02*
