%
M48
M72
T01C0.02362
T02C0.03150
T03C0.03200
T04C0.03937
T05C0.04000
T06C0.07480
%
T01
X66800Y106800
X41800Y116800
X61800Y156800
X61800Y171800
X76800Y181800
X86800Y166800
X146800Y51800
X136800Y31800
X151800Y11800
X116800Y46800
T02
X43926Y16800
X51800Y16800
X59674Y16800
X156721Y25501
X161446Y28650
X156721Y31800
X161446Y34950
X156721Y38099
T03
X16800Y41800
X9300Y46800
X16800Y51800
X41800Y56800
X41800Y66800
X26800Y96800
X66800Y96800
X101800Y96800
X101800Y86800
X101800Y76800
X101800Y66800
X101800Y56800
X101800Y46800
X81800Y41800
X81800Y31800
X111800Y21800
X121800Y21800
X131800Y46800
X131800Y56800
X131800Y66800
X131800Y76800
X131800Y86800
X131800Y96800
X131800Y106800
X131800Y116800
X131800Y126800
X131800Y136800
X131800Y146800
X131800Y156800
X131800Y166800
X131800Y176800
X151800Y176800
X151800Y186800
X151800Y161800
X161800Y161800
X176800Y156800
X186800Y156800
X176800Y176800
X176800Y186800
X151800Y116800
X151800Y106800
X101800Y106800
X101800Y116800
X101800Y126800
X101800Y136800
X101800Y146800
X101800Y156800
X101800Y166800
X101800Y176800
X66800Y136800
X46800Y156800
X46800Y171800
X31800Y186800
X21800Y186800
X6800Y171800
X6800Y156800
X26800Y136800
T04
X36052Y16800
X67548Y16800
T05
X6800Y66800
X6800Y76800
X6800Y86800
X6800Y96800
X6800Y106800
X6800Y116800
X6800Y126800
X6800Y136800
X56800Y191800
X66800Y191800
X76800Y191800
X76800Y166800
X76800Y156800
X76800Y146800
X76800Y136800
X76800Y126800
X81800Y101800
X81800Y91800
X81800Y81800
X66800Y66800
X66800Y56800
X66800Y46800
X194300Y66800
X194300Y76800
X194300Y86800
X194300Y96800
X194300Y106800
X194300Y116800
X194300Y126800
X194300Y136800
T06
X176800Y46170
X176800Y17430
M30
