G75*
%MOIN*%
%OFA0B0*%
%FSLAX25Y25*%
%IPPOS*%
%LPD*%
%AMOC8*
5,1,8,0,0,1.08239X$1,22.5*
%
%ADD10C,0.00000*%
%ADD11C,0.00300*%
%ADD12C,0.00500*%
D10*
X0001800Y0001800D02*
X0001800Y0198650D01*
X0198650Y0198650D01*
X0198650Y0001800D01*
X0001800Y0001800D01*
X0054083Y0010737D02*
X0054085Y0010825D01*
X0054091Y0010913D01*
X0054101Y0011001D01*
X0054115Y0011089D01*
X0054132Y0011175D01*
X0054154Y0011261D01*
X0054179Y0011345D01*
X0054209Y0011429D01*
X0054241Y0011511D01*
X0054278Y0011591D01*
X0054318Y0011670D01*
X0054362Y0011747D01*
X0054409Y0011822D01*
X0054459Y0011894D01*
X0054513Y0011965D01*
X0054569Y0012032D01*
X0054629Y0012098D01*
X0054691Y0012160D01*
X0054757Y0012220D01*
X0054824Y0012276D01*
X0054895Y0012330D01*
X0054967Y0012380D01*
X0055042Y0012427D01*
X0055119Y0012471D01*
X0055198Y0012511D01*
X0055278Y0012548D01*
X0055360Y0012580D01*
X0055444Y0012610D01*
X0055528Y0012635D01*
X0055614Y0012657D01*
X0055700Y0012674D01*
X0055788Y0012688D01*
X0055876Y0012698D01*
X0055964Y0012704D01*
X0056052Y0012706D01*
X0056140Y0012704D01*
X0056228Y0012698D01*
X0056316Y0012688D01*
X0056404Y0012674D01*
X0056490Y0012657D01*
X0056576Y0012635D01*
X0056660Y0012610D01*
X0056744Y0012580D01*
X0056826Y0012548D01*
X0056906Y0012511D01*
X0056985Y0012471D01*
X0057062Y0012427D01*
X0057137Y0012380D01*
X0057209Y0012330D01*
X0057280Y0012276D01*
X0057347Y0012220D01*
X0057413Y0012160D01*
X0057475Y0012098D01*
X0057535Y0012032D01*
X0057591Y0011965D01*
X0057645Y0011894D01*
X0057695Y0011822D01*
X0057742Y0011747D01*
X0057786Y0011670D01*
X0057826Y0011591D01*
X0057863Y0011511D01*
X0057895Y0011429D01*
X0057925Y0011345D01*
X0057950Y0011261D01*
X0057972Y0011175D01*
X0057989Y0011089D01*
X0058003Y0011001D01*
X0058013Y0010913D01*
X0058019Y0010825D01*
X0058021Y0010737D01*
X0058019Y0010649D01*
X0058013Y0010561D01*
X0058003Y0010473D01*
X0057989Y0010385D01*
X0057972Y0010299D01*
X0057950Y0010213D01*
X0057925Y0010129D01*
X0057895Y0010045D01*
X0057863Y0009963D01*
X0057826Y0009883D01*
X0057786Y0009804D01*
X0057742Y0009727D01*
X0057695Y0009652D01*
X0057645Y0009580D01*
X0057591Y0009509D01*
X0057535Y0009442D01*
X0057475Y0009376D01*
X0057413Y0009314D01*
X0057347Y0009254D01*
X0057280Y0009198D01*
X0057209Y0009144D01*
X0057137Y0009094D01*
X0057062Y0009047D01*
X0056985Y0009003D01*
X0056906Y0008963D01*
X0056826Y0008926D01*
X0056744Y0008894D01*
X0056660Y0008864D01*
X0056576Y0008839D01*
X0056490Y0008817D01*
X0056404Y0008800D01*
X0056316Y0008786D01*
X0056228Y0008776D01*
X0056140Y0008770D01*
X0056052Y0008768D01*
X0055964Y0008770D01*
X0055876Y0008776D01*
X0055788Y0008786D01*
X0055700Y0008800D01*
X0055614Y0008817D01*
X0055528Y0008839D01*
X0055444Y0008864D01*
X0055360Y0008894D01*
X0055278Y0008926D01*
X0055198Y0008963D01*
X0055119Y0009003D01*
X0055042Y0009047D01*
X0054967Y0009094D01*
X0054895Y0009144D01*
X0054824Y0009198D01*
X0054757Y0009254D01*
X0054691Y0009314D01*
X0054629Y0009376D01*
X0054569Y0009442D01*
X0054513Y0009509D01*
X0054459Y0009580D01*
X0054409Y0009652D01*
X0054362Y0009727D01*
X0054318Y0009804D01*
X0054278Y0009883D01*
X0054241Y0009963D01*
X0054209Y0010045D01*
X0054179Y0010129D01*
X0054154Y0010213D01*
X0054132Y0010299D01*
X0054115Y0010385D01*
X0054101Y0010473D01*
X0054091Y0010561D01*
X0054085Y0010649D01*
X0054083Y0010737D01*
X0085579Y0010737D02*
X0085581Y0010825D01*
X0085587Y0010913D01*
X0085597Y0011001D01*
X0085611Y0011089D01*
X0085628Y0011175D01*
X0085650Y0011261D01*
X0085675Y0011345D01*
X0085705Y0011429D01*
X0085737Y0011511D01*
X0085774Y0011591D01*
X0085814Y0011670D01*
X0085858Y0011747D01*
X0085905Y0011822D01*
X0085955Y0011894D01*
X0086009Y0011965D01*
X0086065Y0012032D01*
X0086125Y0012098D01*
X0086187Y0012160D01*
X0086253Y0012220D01*
X0086320Y0012276D01*
X0086391Y0012330D01*
X0086463Y0012380D01*
X0086538Y0012427D01*
X0086615Y0012471D01*
X0086694Y0012511D01*
X0086774Y0012548D01*
X0086856Y0012580D01*
X0086940Y0012610D01*
X0087024Y0012635D01*
X0087110Y0012657D01*
X0087196Y0012674D01*
X0087284Y0012688D01*
X0087372Y0012698D01*
X0087460Y0012704D01*
X0087548Y0012706D01*
X0087636Y0012704D01*
X0087724Y0012698D01*
X0087812Y0012688D01*
X0087900Y0012674D01*
X0087986Y0012657D01*
X0088072Y0012635D01*
X0088156Y0012610D01*
X0088240Y0012580D01*
X0088322Y0012548D01*
X0088402Y0012511D01*
X0088481Y0012471D01*
X0088558Y0012427D01*
X0088633Y0012380D01*
X0088705Y0012330D01*
X0088776Y0012276D01*
X0088843Y0012220D01*
X0088909Y0012160D01*
X0088971Y0012098D01*
X0089031Y0012032D01*
X0089087Y0011965D01*
X0089141Y0011894D01*
X0089191Y0011822D01*
X0089238Y0011747D01*
X0089282Y0011670D01*
X0089322Y0011591D01*
X0089359Y0011511D01*
X0089391Y0011429D01*
X0089421Y0011345D01*
X0089446Y0011261D01*
X0089468Y0011175D01*
X0089485Y0011089D01*
X0089499Y0011001D01*
X0089509Y0010913D01*
X0089515Y0010825D01*
X0089517Y0010737D01*
X0089515Y0010649D01*
X0089509Y0010561D01*
X0089499Y0010473D01*
X0089485Y0010385D01*
X0089468Y0010299D01*
X0089446Y0010213D01*
X0089421Y0010129D01*
X0089391Y0010045D01*
X0089359Y0009963D01*
X0089322Y0009883D01*
X0089282Y0009804D01*
X0089238Y0009727D01*
X0089191Y0009652D01*
X0089141Y0009580D01*
X0089087Y0009509D01*
X0089031Y0009442D01*
X0088971Y0009376D01*
X0088909Y0009314D01*
X0088843Y0009254D01*
X0088776Y0009198D01*
X0088705Y0009144D01*
X0088633Y0009094D01*
X0088558Y0009047D01*
X0088481Y0009003D01*
X0088402Y0008963D01*
X0088322Y0008926D01*
X0088240Y0008894D01*
X0088156Y0008864D01*
X0088072Y0008839D01*
X0087986Y0008817D01*
X0087900Y0008800D01*
X0087812Y0008786D01*
X0087724Y0008776D01*
X0087636Y0008770D01*
X0087548Y0008768D01*
X0087460Y0008770D01*
X0087372Y0008776D01*
X0087284Y0008786D01*
X0087196Y0008800D01*
X0087110Y0008817D01*
X0087024Y0008839D01*
X0086940Y0008864D01*
X0086856Y0008894D01*
X0086774Y0008926D01*
X0086694Y0008963D01*
X0086615Y0009003D01*
X0086538Y0009047D01*
X0086463Y0009094D01*
X0086391Y0009144D01*
X0086320Y0009198D01*
X0086253Y0009254D01*
X0086187Y0009314D01*
X0086125Y0009376D01*
X0086065Y0009442D01*
X0086009Y0009509D01*
X0085955Y0009580D01*
X0085905Y0009652D01*
X0085858Y0009727D01*
X0085814Y0009804D01*
X0085774Y0009883D01*
X0085737Y0009963D01*
X0085705Y0010045D01*
X0085675Y0010129D01*
X0085650Y0010213D01*
X0085628Y0010299D01*
X0085611Y0010385D01*
X0085597Y0010473D01*
X0085587Y0010561D01*
X0085581Y0010649D01*
X0085579Y0010737D01*
D11*
X0023650Y0067567D02*
X0023033Y0066950D01*
X0021798Y0066950D01*
X0021181Y0067567D01*
X0021181Y0068802D01*
X0022416Y0068802D01*
X0023650Y0070036D02*
X0023650Y0067567D01*
X0023650Y0070036D02*
X0023033Y0070653D01*
X0021798Y0070653D01*
X0021181Y0070036D01*
X0019967Y0070653D02*
X0017498Y0066950D01*
X0017498Y0070653D01*
X0016284Y0070653D02*
X0014432Y0070653D01*
X0013815Y0070036D01*
X0013815Y0067567D01*
X0014432Y0066950D01*
X0016284Y0066950D01*
X0016284Y0070653D01*
X0019967Y0070653D02*
X0019967Y0066950D01*
X0019967Y0076950D02*
X0019350Y0076950D01*
X0019350Y0077567D01*
X0019967Y0077567D01*
X0019967Y0076950D01*
X0021181Y0077567D02*
X0021798Y0076950D01*
X0023033Y0076950D01*
X0023650Y0077567D01*
X0022416Y0078802D02*
X0021798Y0078802D01*
X0021181Y0078184D01*
X0021181Y0077567D01*
X0021798Y0078802D02*
X0021181Y0079419D01*
X0021181Y0080036D01*
X0021798Y0080653D01*
X0023033Y0080653D01*
X0023650Y0080036D01*
X0018125Y0080036D02*
X0017508Y0080653D01*
X0016274Y0080653D01*
X0015657Y0080036D01*
X0015657Y0079419D01*
X0016274Y0078802D01*
X0015657Y0078184D01*
X0015657Y0077567D01*
X0016274Y0076950D01*
X0017508Y0076950D01*
X0018125Y0077567D01*
X0016891Y0078802D02*
X0016274Y0078802D01*
X0014442Y0078184D02*
X0013208Y0076950D01*
X0011973Y0078184D01*
X0011973Y0080653D01*
X0014442Y0080653D02*
X0014442Y0078184D01*
X0018115Y0086950D02*
X0018115Y0090653D01*
X0019967Y0088802D01*
X0017498Y0088802D01*
X0021181Y0088802D02*
X0023650Y0088802D01*
X0023650Y0089419D02*
X0022416Y0090653D01*
X0021181Y0089419D01*
X0021181Y0086950D01*
X0023650Y0086950D02*
X0023650Y0089419D01*
X0023650Y0096950D02*
X0021798Y0096950D01*
X0021181Y0097567D01*
X0021181Y0098184D01*
X0021798Y0098802D01*
X0023650Y0098802D01*
X0023650Y0100653D02*
X0021798Y0100653D01*
X0021181Y0100036D01*
X0021181Y0099419D01*
X0021798Y0098802D01*
X0019967Y0098802D02*
X0017498Y0098802D01*
X0018115Y0100653D02*
X0018115Y0096950D01*
X0019967Y0098802D02*
X0018115Y0100653D01*
X0023650Y0100653D02*
X0023650Y0096950D01*
X0023650Y0106950D02*
X0021798Y0106950D01*
X0021181Y0107567D01*
X0021181Y0108184D01*
X0021798Y0108802D01*
X0023650Y0108802D01*
X0023650Y0110653D02*
X0021798Y0110653D01*
X0021181Y0110036D01*
X0021181Y0109419D01*
X0021798Y0108802D01*
X0019967Y0110036D02*
X0019350Y0110653D01*
X0018115Y0110653D01*
X0017498Y0110036D01*
X0017498Y0109419D01*
X0018115Y0108802D01*
X0017498Y0108184D01*
X0017498Y0107567D01*
X0018115Y0106950D01*
X0019350Y0106950D01*
X0019967Y0107567D01*
X0018732Y0108802D02*
X0018115Y0108802D01*
X0023650Y0106950D02*
X0023650Y0110653D01*
X0023650Y0116950D02*
X0021798Y0116950D01*
X0021181Y0117567D01*
X0021181Y0118184D01*
X0021798Y0118802D01*
X0023650Y0118802D01*
X0023650Y0120653D02*
X0021798Y0120653D01*
X0021181Y0120036D01*
X0021181Y0119419D01*
X0021798Y0118802D01*
X0019967Y0120036D02*
X0019350Y0120653D01*
X0018115Y0120653D01*
X0017498Y0120036D01*
X0017498Y0119419D01*
X0019967Y0116950D01*
X0017498Y0116950D01*
X0023650Y0116950D02*
X0023650Y0120653D01*
X0023650Y0126950D02*
X0023650Y0129419D01*
X0022416Y0130653D01*
X0021181Y0129419D01*
X0021181Y0126950D01*
X0019967Y0126950D02*
X0017498Y0126950D01*
X0018732Y0126950D02*
X0018732Y0130653D01*
X0019967Y0129419D01*
X0021181Y0128802D02*
X0023650Y0128802D01*
X0023650Y0136950D02*
X0023650Y0139419D01*
X0022416Y0140653D01*
X0021181Y0139419D01*
X0021181Y0136950D01*
X0019967Y0137567D02*
X0019967Y0140036D01*
X0019350Y0140653D01*
X0018115Y0140653D01*
X0017498Y0140036D01*
X0019967Y0137567D01*
X0019350Y0136950D01*
X0018115Y0136950D01*
X0017498Y0137567D01*
X0017498Y0140036D01*
X0021181Y0138802D02*
X0023650Y0138802D01*
X0173815Y0138802D02*
X0173815Y0137567D01*
X0174432Y0136950D01*
X0175667Y0136950D01*
X0176284Y0137567D01*
X0176284Y0138802D02*
X0175049Y0139419D01*
X0174432Y0139419D01*
X0173815Y0138802D01*
X0173815Y0140653D02*
X0176284Y0140653D01*
X0176284Y0138802D01*
X0177498Y0136950D02*
X0179967Y0136950D01*
X0178732Y0136950D02*
X0178732Y0140653D01*
X0179967Y0139419D01*
X0181181Y0139419D02*
X0181798Y0138802D01*
X0183650Y0138802D01*
X0183650Y0140653D02*
X0181798Y0140653D01*
X0181181Y0140036D01*
X0181181Y0139419D01*
X0181798Y0138802D02*
X0181181Y0138184D01*
X0181181Y0137567D01*
X0181798Y0136950D01*
X0183650Y0136950D01*
X0183650Y0140653D01*
X0183650Y0130653D02*
X0181798Y0130653D01*
X0181181Y0130036D01*
X0181181Y0129419D01*
X0181798Y0128802D01*
X0183650Y0128802D01*
X0183650Y0130653D02*
X0183650Y0126950D01*
X0181798Y0126950D01*
X0181181Y0127567D01*
X0181181Y0128184D01*
X0181798Y0128802D01*
X0179967Y0129419D02*
X0178732Y0130653D01*
X0178732Y0126950D01*
X0177498Y0126950D02*
X0179967Y0126950D01*
X0176284Y0128802D02*
X0173815Y0128802D01*
X0174432Y0130653D02*
X0174432Y0126950D01*
X0176284Y0128802D02*
X0174432Y0130653D01*
X0174432Y0120653D02*
X0173815Y0120036D01*
X0173815Y0119419D01*
X0174432Y0118802D01*
X0173815Y0118184D01*
X0173815Y0117567D01*
X0174432Y0116950D01*
X0175667Y0116950D01*
X0176284Y0117567D01*
X0177498Y0116950D02*
X0179967Y0116950D01*
X0178732Y0116950D02*
X0178732Y0120653D01*
X0179967Y0119419D01*
X0181181Y0119419D02*
X0181798Y0118802D01*
X0183650Y0118802D01*
X0183650Y0120653D02*
X0181798Y0120653D01*
X0181181Y0120036D01*
X0181181Y0119419D01*
X0181798Y0118802D02*
X0181181Y0118184D01*
X0181181Y0117567D01*
X0181798Y0116950D01*
X0183650Y0116950D01*
X0183650Y0120653D01*
X0176284Y0120036D02*
X0175667Y0120653D01*
X0174432Y0120653D01*
X0174432Y0118802D02*
X0175049Y0118802D01*
X0178115Y0110653D02*
X0179350Y0110653D01*
X0179967Y0110036D01*
X0179967Y0109419D01*
X0179350Y0108802D01*
X0177498Y0108802D01*
X0177498Y0110036D02*
X0177498Y0107567D01*
X0178115Y0106950D01*
X0179350Y0106950D01*
X0179967Y0107567D01*
X0181181Y0107567D02*
X0181798Y0106950D01*
X0183650Y0106950D01*
X0183650Y0110653D01*
X0181798Y0110653D01*
X0181181Y0110036D01*
X0181181Y0109419D01*
X0181798Y0108802D01*
X0183650Y0108802D01*
X0181798Y0108802D02*
X0181181Y0108184D01*
X0181181Y0107567D01*
X0178115Y0110653D02*
X0177498Y0110036D01*
X0178115Y0100653D02*
X0177498Y0100036D01*
X0177498Y0099419D01*
X0178115Y0098802D01*
X0179350Y0098802D01*
X0179967Y0099419D01*
X0179967Y0100036D01*
X0179350Y0100653D01*
X0178115Y0100653D01*
X0178115Y0098802D02*
X0177498Y0098184D01*
X0177498Y0097567D01*
X0178115Y0096950D01*
X0179350Y0096950D01*
X0179967Y0097567D01*
X0179967Y0098184D01*
X0179350Y0098802D01*
X0181181Y0099419D02*
X0181798Y0098802D01*
X0183650Y0098802D01*
X0183650Y0100653D02*
X0181798Y0100653D01*
X0181181Y0100036D01*
X0181181Y0099419D01*
X0181798Y0098802D02*
X0181181Y0098184D01*
X0181181Y0097567D01*
X0181798Y0096950D01*
X0183650Y0096950D01*
X0183650Y0100653D01*
X0183650Y0090653D02*
X0181798Y0090653D01*
X0181181Y0090036D01*
X0181181Y0089419D01*
X0181798Y0088802D01*
X0183650Y0088802D01*
X0183650Y0090653D02*
X0183650Y0086950D01*
X0181798Y0086950D01*
X0181181Y0087567D01*
X0181181Y0088184D01*
X0181798Y0088802D01*
X0179967Y0087567D02*
X0179967Y0086950D01*
X0179967Y0087567D02*
X0177498Y0090036D01*
X0177498Y0090653D01*
X0179967Y0090653D01*
X0179967Y0080653D02*
X0179967Y0078184D01*
X0178732Y0076950D01*
X0177498Y0078184D01*
X0177498Y0080653D01*
X0181181Y0080653D02*
X0183650Y0080653D01*
X0183650Y0078802D01*
X0182416Y0079419D01*
X0181798Y0079419D01*
X0181181Y0078802D01*
X0181181Y0077567D01*
X0181798Y0076950D01*
X0183033Y0076950D01*
X0183650Y0077567D01*
X0183033Y0070653D02*
X0183650Y0070036D01*
X0183650Y0067567D01*
X0183033Y0066950D01*
X0181798Y0066950D01*
X0181181Y0067567D01*
X0181181Y0068802D01*
X0182416Y0068802D01*
X0181181Y0070036D02*
X0181798Y0070653D01*
X0183033Y0070653D01*
X0179967Y0070653D02*
X0177498Y0066950D01*
X0177498Y0070653D01*
X0176284Y0070653D02*
X0174432Y0070653D01*
X0173815Y0070036D01*
X0173815Y0067567D01*
X0174432Y0066950D01*
X0176284Y0066950D01*
X0176284Y0070653D01*
X0179967Y0070653D02*
X0179967Y0066950D01*
D12*
X0191564Y0047154D02*
X0156131Y0047154D01*
X0156131Y0016446D01*
X0191564Y0016446D01*
X0191564Y0047154D01*
X0189595Y0043611D02*
X0189595Y0039674D01*
X0171879Y0037706D01*
X0169910Y0034753D02*
X0189595Y0036721D01*
X0189595Y0043611D02*
X0171879Y0045580D01*
X0169910Y0034753D02*
X0169910Y0028847D01*
X0189595Y0026879D01*
X0189595Y0023926D02*
X0173847Y0025894D01*
X0173847Y0018020D02*
X0189595Y0019989D01*
X0189595Y0023926D01*
M02*
