G75*
%MOIN*%
%OFA0B0*%
%FSLAX25Y25*%
%IPPOS*%
%LPD*%
%AMOC8*
5,1,8,0,0,1.08239X$1,22.5*
%
%ADD10C,0.00000*%
%ADD11C,0.07400*%
%ADD12OC8,0.05200*%
%ADD13C,0.05200*%
%ADD14C,0.05150*%
%ADD15C,0.11220*%
%ADD16C,0.01600*%
%ADD17R,0.03562X0.03562*%
D10*
X0001800Y0001800D02*
X0001800Y0198650D01*
X0198650Y0198650D01*
X0198650Y0001800D01*
X0001800Y0001800D01*
X0054083Y0010737D02*
X0054085Y0010825D01*
X0054091Y0010913D01*
X0054101Y0011001D01*
X0054115Y0011089D01*
X0054132Y0011175D01*
X0054154Y0011261D01*
X0054179Y0011345D01*
X0054209Y0011429D01*
X0054241Y0011511D01*
X0054278Y0011591D01*
X0054318Y0011670D01*
X0054362Y0011747D01*
X0054409Y0011822D01*
X0054459Y0011894D01*
X0054513Y0011965D01*
X0054569Y0012032D01*
X0054629Y0012098D01*
X0054691Y0012160D01*
X0054757Y0012220D01*
X0054824Y0012276D01*
X0054895Y0012330D01*
X0054967Y0012380D01*
X0055042Y0012427D01*
X0055119Y0012471D01*
X0055198Y0012511D01*
X0055278Y0012548D01*
X0055360Y0012580D01*
X0055444Y0012610D01*
X0055528Y0012635D01*
X0055614Y0012657D01*
X0055700Y0012674D01*
X0055788Y0012688D01*
X0055876Y0012698D01*
X0055964Y0012704D01*
X0056052Y0012706D01*
X0056140Y0012704D01*
X0056228Y0012698D01*
X0056316Y0012688D01*
X0056404Y0012674D01*
X0056490Y0012657D01*
X0056576Y0012635D01*
X0056660Y0012610D01*
X0056744Y0012580D01*
X0056826Y0012548D01*
X0056906Y0012511D01*
X0056985Y0012471D01*
X0057062Y0012427D01*
X0057137Y0012380D01*
X0057209Y0012330D01*
X0057280Y0012276D01*
X0057347Y0012220D01*
X0057413Y0012160D01*
X0057475Y0012098D01*
X0057535Y0012032D01*
X0057591Y0011965D01*
X0057645Y0011894D01*
X0057695Y0011822D01*
X0057742Y0011747D01*
X0057786Y0011670D01*
X0057826Y0011591D01*
X0057863Y0011511D01*
X0057895Y0011429D01*
X0057925Y0011345D01*
X0057950Y0011261D01*
X0057972Y0011175D01*
X0057989Y0011089D01*
X0058003Y0011001D01*
X0058013Y0010913D01*
X0058019Y0010825D01*
X0058021Y0010737D01*
X0058019Y0010649D01*
X0058013Y0010561D01*
X0058003Y0010473D01*
X0057989Y0010385D01*
X0057972Y0010299D01*
X0057950Y0010213D01*
X0057925Y0010129D01*
X0057895Y0010045D01*
X0057863Y0009963D01*
X0057826Y0009883D01*
X0057786Y0009804D01*
X0057742Y0009727D01*
X0057695Y0009652D01*
X0057645Y0009580D01*
X0057591Y0009509D01*
X0057535Y0009442D01*
X0057475Y0009376D01*
X0057413Y0009314D01*
X0057347Y0009254D01*
X0057280Y0009198D01*
X0057209Y0009144D01*
X0057137Y0009094D01*
X0057062Y0009047D01*
X0056985Y0009003D01*
X0056906Y0008963D01*
X0056826Y0008926D01*
X0056744Y0008894D01*
X0056660Y0008864D01*
X0056576Y0008839D01*
X0056490Y0008817D01*
X0056404Y0008800D01*
X0056316Y0008786D01*
X0056228Y0008776D01*
X0056140Y0008770D01*
X0056052Y0008768D01*
X0055964Y0008770D01*
X0055876Y0008776D01*
X0055788Y0008786D01*
X0055700Y0008800D01*
X0055614Y0008817D01*
X0055528Y0008839D01*
X0055444Y0008864D01*
X0055360Y0008894D01*
X0055278Y0008926D01*
X0055198Y0008963D01*
X0055119Y0009003D01*
X0055042Y0009047D01*
X0054967Y0009094D01*
X0054895Y0009144D01*
X0054824Y0009198D01*
X0054757Y0009254D01*
X0054691Y0009314D01*
X0054629Y0009376D01*
X0054569Y0009442D01*
X0054513Y0009509D01*
X0054459Y0009580D01*
X0054409Y0009652D01*
X0054362Y0009727D01*
X0054318Y0009804D01*
X0054278Y0009883D01*
X0054241Y0009963D01*
X0054209Y0010045D01*
X0054179Y0010129D01*
X0054154Y0010213D01*
X0054132Y0010299D01*
X0054115Y0010385D01*
X0054101Y0010473D01*
X0054091Y0010561D01*
X0054085Y0010649D01*
X0054083Y0010737D01*
X0085579Y0010737D02*
X0085581Y0010825D01*
X0085587Y0010913D01*
X0085597Y0011001D01*
X0085611Y0011089D01*
X0085628Y0011175D01*
X0085650Y0011261D01*
X0085675Y0011345D01*
X0085705Y0011429D01*
X0085737Y0011511D01*
X0085774Y0011591D01*
X0085814Y0011670D01*
X0085858Y0011747D01*
X0085905Y0011822D01*
X0085955Y0011894D01*
X0086009Y0011965D01*
X0086065Y0012032D01*
X0086125Y0012098D01*
X0086187Y0012160D01*
X0086253Y0012220D01*
X0086320Y0012276D01*
X0086391Y0012330D01*
X0086463Y0012380D01*
X0086538Y0012427D01*
X0086615Y0012471D01*
X0086694Y0012511D01*
X0086774Y0012548D01*
X0086856Y0012580D01*
X0086940Y0012610D01*
X0087024Y0012635D01*
X0087110Y0012657D01*
X0087196Y0012674D01*
X0087284Y0012688D01*
X0087372Y0012698D01*
X0087460Y0012704D01*
X0087548Y0012706D01*
X0087636Y0012704D01*
X0087724Y0012698D01*
X0087812Y0012688D01*
X0087900Y0012674D01*
X0087986Y0012657D01*
X0088072Y0012635D01*
X0088156Y0012610D01*
X0088240Y0012580D01*
X0088322Y0012548D01*
X0088402Y0012511D01*
X0088481Y0012471D01*
X0088558Y0012427D01*
X0088633Y0012380D01*
X0088705Y0012330D01*
X0088776Y0012276D01*
X0088843Y0012220D01*
X0088909Y0012160D01*
X0088971Y0012098D01*
X0089031Y0012032D01*
X0089087Y0011965D01*
X0089141Y0011894D01*
X0089191Y0011822D01*
X0089238Y0011747D01*
X0089282Y0011670D01*
X0089322Y0011591D01*
X0089359Y0011511D01*
X0089391Y0011429D01*
X0089421Y0011345D01*
X0089446Y0011261D01*
X0089468Y0011175D01*
X0089485Y0011089D01*
X0089499Y0011001D01*
X0089509Y0010913D01*
X0089515Y0010825D01*
X0089517Y0010737D01*
X0089515Y0010649D01*
X0089509Y0010561D01*
X0089499Y0010473D01*
X0089485Y0010385D01*
X0089468Y0010299D01*
X0089446Y0010213D01*
X0089421Y0010129D01*
X0089391Y0010045D01*
X0089359Y0009963D01*
X0089322Y0009883D01*
X0089282Y0009804D01*
X0089238Y0009727D01*
X0089191Y0009652D01*
X0089141Y0009580D01*
X0089087Y0009509D01*
X0089031Y0009442D01*
X0088971Y0009376D01*
X0088909Y0009314D01*
X0088843Y0009254D01*
X0088776Y0009198D01*
X0088705Y0009144D01*
X0088633Y0009094D01*
X0088558Y0009047D01*
X0088481Y0009003D01*
X0088402Y0008963D01*
X0088322Y0008926D01*
X0088240Y0008894D01*
X0088156Y0008864D01*
X0088072Y0008839D01*
X0087986Y0008817D01*
X0087900Y0008800D01*
X0087812Y0008786D01*
X0087724Y0008776D01*
X0087636Y0008770D01*
X0087548Y0008768D01*
X0087460Y0008770D01*
X0087372Y0008776D01*
X0087284Y0008786D01*
X0087196Y0008800D01*
X0087110Y0008817D01*
X0087024Y0008839D01*
X0086940Y0008864D01*
X0086856Y0008894D01*
X0086774Y0008926D01*
X0086694Y0008963D01*
X0086615Y0009003D01*
X0086538Y0009047D01*
X0086463Y0009094D01*
X0086391Y0009144D01*
X0086320Y0009198D01*
X0086253Y0009254D01*
X0086187Y0009314D01*
X0086125Y0009376D01*
X0086065Y0009442D01*
X0086009Y0009509D01*
X0085955Y0009580D01*
X0085905Y0009652D01*
X0085858Y0009727D01*
X0085814Y0009804D01*
X0085774Y0009883D01*
X0085737Y0009963D01*
X0085705Y0010045D01*
X0085675Y0010129D01*
X0085650Y0010213D01*
X0085628Y0010299D01*
X0085611Y0010385D01*
X0085597Y0010473D01*
X0085587Y0010561D01*
X0085581Y0010649D01*
X0085579Y0010737D01*
D11*
X0066800Y0046800D03*
X0066800Y0056800D03*
X0066800Y0066800D03*
X0081800Y0081800D03*
X0081800Y0091800D03*
X0081800Y0101800D03*
X0076800Y0126800D03*
X0076800Y0136800D03*
X0076800Y0146800D03*
X0076800Y0156800D03*
X0076800Y0166800D03*
X0076800Y0191800D03*
X0066800Y0191800D03*
X0056800Y0191800D03*
X0006800Y0136800D03*
X0006800Y0126800D03*
X0006800Y0116800D03*
X0006800Y0106800D03*
X0006800Y0096800D03*
X0006800Y0086800D03*
X0006800Y0076800D03*
X0006800Y0066800D03*
X0194300Y0066800D03*
X0194300Y0076800D03*
X0194300Y0086800D03*
X0194300Y0096800D03*
X0194300Y0106800D03*
X0194300Y0116800D03*
X0194300Y0126800D03*
X0194300Y0136800D03*
D12*
X0186800Y0156800D03*
X0176800Y0156800D03*
X0161800Y0161800D03*
X0151800Y0161800D03*
X0151800Y0176800D03*
X0151800Y0186800D03*
X0176800Y0186800D03*
X0176800Y0176800D03*
X0151800Y0116800D03*
X0151800Y0106800D03*
X0081800Y0041800D03*
X0081800Y0031800D03*
X0111800Y0021800D03*
X0121800Y0021800D03*
X0066800Y0096800D03*
X0041800Y0066800D03*
X0041800Y0056800D03*
X0031800Y0026800D03*
X0024300Y0021800D03*
X0031800Y0016800D03*
X0026800Y0096800D03*
X0026800Y0136800D03*
X0006800Y0156800D03*
X0006800Y0171800D03*
X0021800Y0186800D03*
X0031800Y0186800D03*
X0046800Y0171800D03*
X0046800Y0156800D03*
X0066800Y0136800D03*
D13*
X0099200Y0136800D02*
X0104400Y0136800D01*
X0104400Y0126800D02*
X0099200Y0126800D01*
X0099200Y0116800D02*
X0104400Y0116800D01*
X0104400Y0106800D02*
X0099200Y0106800D01*
X0099200Y0096800D02*
X0104400Y0096800D01*
X0104400Y0086800D02*
X0099200Y0086800D01*
X0099200Y0076800D02*
X0104400Y0076800D01*
X0104400Y0066800D02*
X0099200Y0066800D01*
X0099200Y0056800D02*
X0104400Y0056800D01*
X0104400Y0046800D02*
X0099200Y0046800D01*
X0129200Y0046800D02*
X0134400Y0046800D01*
X0134400Y0056800D02*
X0129200Y0056800D01*
X0129200Y0066800D02*
X0134400Y0066800D01*
X0134400Y0076800D02*
X0129200Y0076800D01*
X0129200Y0086800D02*
X0134400Y0086800D01*
X0134400Y0096800D02*
X0129200Y0096800D01*
X0129200Y0106800D02*
X0134400Y0106800D01*
X0134400Y0116800D02*
X0129200Y0116800D01*
X0129200Y0126800D02*
X0134400Y0126800D01*
X0134400Y0136800D02*
X0129200Y0136800D01*
X0129200Y0146800D02*
X0134400Y0146800D01*
X0134400Y0156800D02*
X0129200Y0156800D01*
X0129200Y0166800D02*
X0134400Y0166800D01*
X0134400Y0176800D02*
X0129200Y0176800D01*
X0104400Y0176800D02*
X0099200Y0176800D01*
X0099200Y0166800D02*
X0104400Y0166800D01*
X0104400Y0156800D02*
X0099200Y0156800D01*
X0099200Y0146800D02*
X0104400Y0146800D01*
D14*
X0156721Y0038099D03*
X0161446Y0034950D03*
X0156721Y0031800D03*
X0161446Y0028650D03*
X0156721Y0025501D03*
X0079674Y0010737D03*
X0071800Y0010737D03*
X0063926Y0010737D03*
D15*
X0176800Y0017430D03*
X0176800Y0046170D03*
D16*
X0163650Y0034950D02*
X0166800Y0031800D01*
X0166800Y0006800D01*
X0106800Y0006800D01*
X0101800Y0011800D01*
X0101800Y0046800D01*
X0101800Y0056800D02*
X0111800Y0056800D01*
X0121800Y0066800D01*
X0121800Y0116800D01*
X0131800Y0126800D01*
X0146800Y0126800D01*
X0151800Y0131800D01*
X0151800Y0161800D01*
X0151800Y0176800D01*
X0131800Y0176800D02*
X0116800Y0176800D01*
X0106800Y0186800D01*
X0096800Y0186800D01*
X0091800Y0181800D01*
X0091800Y0161800D01*
X0086800Y0156800D01*
X0076800Y0156800D01*
X0066800Y0146800D01*
X0031800Y0146800D01*
X0026800Y0136800D01*
X0006800Y0156800D01*
X0021800Y0186800D01*
X0031800Y0186800D02*
X0046800Y0171800D01*
X0046800Y0156800D02*
X0056800Y0191800D01*
X0076800Y0166800D01*
X0086800Y0166800D02*
X0086800Y0171800D01*
X0076800Y0181800D01*
X0061800Y0171800D02*
X0061800Y0156800D01*
X0066800Y0136800D02*
X0051800Y0126800D01*
X0041800Y0126800D01*
X0011800Y0096800D01*
X0006800Y0096800D01*
X0006981Y0096738D01*
X0007160Y0096671D01*
X0007337Y0096599D01*
X0007512Y0096524D01*
X0007686Y0096444D01*
X0007858Y0096360D01*
X0008027Y0096272D01*
X0008195Y0096180D01*
X0008360Y0096084D01*
X0008522Y0095984D01*
X0008683Y0095880D01*
X0008840Y0095772D01*
X0008995Y0095661D01*
X0009148Y0095545D01*
X0009297Y0095426D01*
X0009444Y0095304D01*
X0009587Y0095178D01*
X0009728Y0095048D01*
X0009865Y0094915D01*
X0009999Y0094779D01*
X0010130Y0094640D01*
X0010257Y0094498D01*
X0010381Y0094352D01*
X0010502Y0094204D01*
X0010618Y0094052D01*
X0010731Y0093898D01*
X0010840Y0093742D01*
X0010946Y0093582D01*
X0011047Y0093420D01*
X0011145Y0093256D01*
X0011239Y0093090D01*
X0011328Y0092921D01*
X0011414Y0092750D01*
X0011495Y0092577D01*
X0011572Y0092402D01*
X0011645Y0092226D01*
X0011713Y0092047D01*
X0011778Y0091867D01*
X0011837Y0091686D01*
X0011893Y0091503D01*
X0011944Y0091319D01*
X0011990Y0091134D01*
X0012032Y0090947D01*
X0012070Y0090760D01*
X0012103Y0090572D01*
X0012131Y0090383D01*
X0012155Y0090193D01*
X0012175Y0090003D01*
X0012189Y0089813D01*
X0012199Y0089622D01*
X0012205Y0089431D01*
X0012206Y0089240D01*
X0012202Y0089049D01*
X0012194Y0088858D01*
X0012181Y0088667D01*
X0012163Y0088477D01*
X0012141Y0088287D01*
X0012114Y0088098D01*
X0012083Y0087910D01*
X0012047Y0087722D01*
X0012007Y0087535D01*
X0011962Y0087350D01*
X0011912Y0087165D01*
X0011859Y0086982D01*
X0011800Y0086800D01*
X0006800Y0086800D02*
X0041800Y0056800D01*
X0061800Y0076800D01*
X0071800Y0076800D01*
X0076800Y0071800D01*
X0096800Y0071800D01*
X0101800Y0066800D01*
X0101800Y0086800D02*
X0081800Y0081800D01*
X0081800Y0091800D02*
X0101800Y0106800D01*
X0096800Y0111800D02*
X0101800Y0116800D01*
X0096800Y0111800D02*
X0071800Y0111800D01*
X0066800Y0106800D01*
X0066800Y0096800D02*
X0041800Y0066800D01*
X0016800Y0071800D02*
X0016800Y0041800D01*
X0031800Y0026800D01*
X0063926Y0010737D02*
X0066800Y0046800D01*
X0016800Y0071800D02*
X0011800Y0076800D01*
X0006800Y0076800D01*
X0041800Y0116800D02*
X0091800Y0116800D01*
X0101800Y0126800D01*
X0131800Y0106800D02*
X0136800Y0106800D01*
X0146800Y0096800D01*
X0146800Y0051800D01*
X0161446Y0034950D02*
X0163650Y0034950D01*
X0151800Y0011800D02*
X0146800Y0011800D01*
X0116800Y0041800D01*
X0116800Y0046800D01*
X0176800Y0156800D02*
X0176800Y0176800D01*
D17*
X0086800Y0166800D03*
X0076800Y0181800D03*
X0061800Y0171800D03*
X0061800Y0156800D03*
X0041800Y0116800D03*
X0066800Y0106800D03*
X0116800Y0046800D03*
X0146800Y0051800D03*
X0151800Y0011800D03*
M02*
