G75*
%MOIN*%
%OFA0B0*%
%FSLAX25Y25*%
%IPPOS*%
%LPD*%
%AMOC8*
5,1,8,0,0,1.08239X$1,22.5*
%
%ADD10C,0.00000*%
%ADD11C,0.07800*%
%ADD12OC8,0.05600*%
%ADD13C,0.05600*%
%ADD14C,0.05550*%
%ADD15C,0.11620*%
%ADD16C,0.05550*%
%ADD17C,0.06337*%
D10*
X0001800Y0001800D02*
X0001800Y0198650D01*
X0198650Y0198650D01*
X0198650Y0001800D01*
X0001800Y0001800D01*
D11*
X0006800Y0066800D03*
X0006800Y0076800D03*
X0006800Y0086800D03*
X0006800Y0096800D03*
X0006800Y0106800D03*
X0006800Y0116800D03*
X0006800Y0126800D03*
X0006800Y0136800D03*
X0056800Y0191800D03*
X0066800Y0191800D03*
X0076800Y0191800D03*
X0076800Y0166800D03*
X0076800Y0156800D03*
X0076800Y0146800D03*
X0076800Y0136800D03*
X0076800Y0126800D03*
X0081800Y0101800D03*
X0081800Y0091800D03*
X0081800Y0081800D03*
X0066800Y0066800D03*
X0066800Y0056800D03*
X0066800Y0046800D03*
X0194300Y0066800D03*
X0194300Y0076800D03*
X0194300Y0086800D03*
X0194300Y0096800D03*
X0194300Y0106800D03*
X0194300Y0116800D03*
X0194300Y0126800D03*
X0194300Y0136800D03*
D12*
X0186800Y0156800D03*
X0176800Y0156800D03*
X0161800Y0161800D03*
X0151800Y0161800D03*
X0151800Y0176800D03*
X0151800Y0186800D03*
X0176800Y0186800D03*
X0176800Y0176800D03*
X0151800Y0116800D03*
X0151800Y0106800D03*
X0081800Y0041800D03*
X0081800Y0031800D03*
X0111800Y0021800D03*
X0121800Y0021800D03*
X0066800Y0096800D03*
X0041800Y0066800D03*
X0041800Y0056800D03*
X0016800Y0051800D03*
X0009300Y0046800D03*
X0016800Y0041800D03*
X0026800Y0096800D03*
X0026800Y0136800D03*
X0006800Y0156800D03*
X0006800Y0171800D03*
X0021800Y0186800D03*
X0031800Y0186800D03*
X0046800Y0171800D03*
X0046800Y0156800D03*
X0066800Y0136800D03*
D13*
X0099200Y0136800D02*
X0104400Y0136800D01*
X0104400Y0126800D02*
X0099200Y0126800D01*
X0099200Y0116800D02*
X0104400Y0116800D01*
X0104400Y0106800D02*
X0099200Y0106800D01*
X0099200Y0096800D02*
X0104400Y0096800D01*
X0104400Y0086800D02*
X0099200Y0086800D01*
X0099200Y0076800D02*
X0104400Y0076800D01*
X0104400Y0066800D02*
X0099200Y0066800D01*
X0099200Y0056800D02*
X0104400Y0056800D01*
X0104400Y0046800D02*
X0099200Y0046800D01*
X0129200Y0046800D02*
X0134400Y0046800D01*
X0134400Y0056800D02*
X0129200Y0056800D01*
X0129200Y0066800D02*
X0134400Y0066800D01*
X0134400Y0076800D02*
X0129200Y0076800D01*
X0129200Y0086800D02*
X0134400Y0086800D01*
X0134400Y0096800D02*
X0129200Y0096800D01*
X0129200Y0106800D02*
X0134400Y0106800D01*
X0134400Y0116800D02*
X0129200Y0116800D01*
X0129200Y0126800D02*
X0134400Y0126800D01*
X0134400Y0136800D02*
X0129200Y0136800D01*
X0129200Y0146800D02*
X0134400Y0146800D01*
X0134400Y0156800D02*
X0129200Y0156800D01*
X0129200Y0166800D02*
X0134400Y0166800D01*
X0134400Y0176800D02*
X0129200Y0176800D01*
X0104400Y0176800D02*
X0099200Y0176800D01*
X0099200Y0166800D02*
X0104400Y0166800D01*
X0104400Y0156800D02*
X0099200Y0156800D01*
X0099200Y0146800D02*
X0104400Y0146800D01*
D14*
X0156721Y0038099D03*
X0161446Y0034950D03*
X0156721Y0031800D03*
X0161446Y0028650D03*
X0156721Y0025501D03*
D15*
X0176800Y0017430D03*
X0176800Y0046170D03*
D16*
X0059674Y0019375D02*
X0059674Y0014225D01*
X0051800Y0014225D02*
X0051800Y0019375D01*
X0043926Y0019375D02*
X0043926Y0014225D01*
D17*
X0036052Y0013831D02*
X0036052Y0019769D01*
X0067548Y0019769D02*
X0067548Y0013831D01*
M02*
